<?xml version="1.0" encoding="UTF-8"?>
<svg id="Capa_2" data-name="Capa 2" xmlns="http://www.w3.org/2000/svg" viewBox="0 0 245.14 145.3">
  <defs>
    <style>
      .cls-1 {
        fill: #ebaf00;
      }

      .cls-2 {
        fill: #f7f7f7;
      }
    </style>
  </defs>
  <g id="Capa_1-2" data-name="Capa 1">
    <path class="cls-1" d="M122.57,22.73C54.88,22.73,0,77.61,0,145.3h245.14c0-67.69-54.88-122.57-122.57-122.57Z"/>
    <g>
      <path class="cls-2" d="M47.07,91.22l-12.87,6.93-5.4-9.99,23.13-12.33h11.97l-13.14,62.19h-13.5l9.81-46.8Z"/>
      <path class="cls-2" d="M117.54,96.8c.12,4.44-.36,9.15-1.44,14.13-1.08,5.34-2.8,10.19-5.17,14.54-2.37,4.35-5.42,7.8-9.13,10.35-3.72,2.55-8.19,3.83-13.41,3.83-6.18,0-10.97-1.53-14.35-4.59-3.39-3.06-5.24-7.29-5.54-12.69h12.78c.36,2.34,1.21,3.96,2.56,4.86,1.35.9,3.11,1.35,5.26,1.35,2.82,0,5.31-1.11,7.47-3.33,2.16-2.22,3.84-5.79,5.04-10.71.3-1.2.54-2.49.72-3.87-1.74,1.8-3.66,3.11-5.76,3.92-2.1.81-4.44,1.21-7.02,1.21-4.08,0-7.53-1.08-10.35-3.24-2.82-2.16-4.79-5.05-5.9-8.69-1.11-3.63-1.21-7.63-.31-12.01,1.2-5.46,3.9-9.78,8.1-12.96,4.2-3.18,9.39-4.77,15.57-4.77,4.74,0,8.62.98,11.66,2.93,3.03,1.95,5.29,4.62,6.79,8.01,1.5,3.39,2.31,7.31,2.43,11.75ZM104.4,97.16c.42-2.1.39-4.09-.09-5.98-.48-1.89-1.39-3.43-2.74-4.64-1.35-1.2-3.14-1.8-5.36-1.8-2.7,0-4.95.72-6.75,2.16-1.8,1.44-3,3.54-3.6,6.3-.72,3.48-.44,6.45.85,8.91,1.29,2.46,3.56,3.69,6.79,3.69,2.46,0,4.74-.75,6.84-2.25,2.1-1.5,3.45-3.63,4.05-6.39Z"/>
      <path class="cls-2" d="M132.48,125.91c1.74,1.65,4.11,2.48,7.11,2.48,2.58,0,4.73-.61,6.44-1.84,1.71-1.23,2.8-2.98,3.29-5.27.6-2.94.24-5.35-1.08-7.25-1.32-1.89-3.57-2.83-6.75-2.83h-5.67l2.16-10.53h5.4c2.58,0,4.77-.53,6.57-1.58,1.8-1.05,2.94-2.75,3.42-5.08.48-2.34.07-4.33-1.21-5.99-1.29-1.65-3.41-2.47-6.34-2.47s-5.25.65-6.93,1.93c-1.68,1.29-3,3.44-3.96,6.44l-12.15-1.44c1.02-5.46,3.55-9.88,7.6-13.28,4.05-3.39,9.61-5.08,16.7-5.08,4.38,0,8.19.83,11.43,2.48,3.24,1.65,5.62,3.96,7.16,6.93s1.87,6.44,1.04,10.4c-.6,2.82-1.86,5.28-3.78,7.38-1.92,2.1-4.35,3.69-7.29,4.77,3.12,1.62,5.25,4.07,6.39,7.33,1.14,3.27,1.35,6.71.63,10.31-1.02,4.86-3.59,8.73-7.69,11.61-4.11,2.88-9.35,4.32-15.71,4.32-4.56,0-8.57-.86-12.02-2.57s-6.06-4.15-7.83-7.33c-1.77-3.18-2.51-6.93-2.21-11.25h12.78c-.06,3.3.78,5.78,2.52,7.42Z"/>
      <path class="cls-2" d="M216.45,96.71c.12,4.38-.33,9-1.35,13.86-1.02,5.34-2.76,10.21-5.22,14.62-2.46,4.41-5.62,7.92-9.5,10.53s-8.48,3.92-13.82,3.92c-4.56,0-8.27-.95-11.11-2.83-2.85-1.89-4.98-4.51-6.39-7.88-1.41-3.36-2.18-7.21-2.29-11.57-.12-4.35.3-8.96,1.26-13.81,1.08-5.4,2.85-10.32,5.31-14.76,2.46-4.44,5.64-7.99,9.54-10.66,3.9-2.67,8.49-4.01,13.77-4.01,4.56,0,8.26.98,11.12,2.93,2.85,1.95,4.98,4.62,6.39,8.01,1.41,3.39,2.17,7.28,2.29,11.66ZM201.24,107.33c.48-2.7.81-5.32.99-7.88.18-2.55.1-4.86-.22-6.93-.33-2.07-1.02-3.7-2.07-4.91-1.05-1.2-2.54-1.8-4.46-1.8-3.48,0-6.32,1.91-8.5,5.71-2.19,3.81-3.89,8.81-5.08,14.99-.48,2.7-.81,5.33-.99,7.88-.18,2.55-.11,4.85.23,6.88.33,2.04,1.02,3.66,2.07,4.86,1.05,1.2,2.57,1.8,4.54,1.8,3.48,0,6.31-1.89,8.5-5.67s3.86-8.76,5-14.94Z"/>
    </g>
    <g>
      <path class="cls-1" d="M15.14,57.75l-3.18,3.63,1.5,2.61-1.88,2.14-6.62-11.94,2.21-2.52,12.68,5.04-1.93,2.21-2.77-1.16ZM7.88,54.62l2.81,4.74,2.27-2.58-5.08-2.15Z"/>
      <path class="cls-1" d="M22.02,50.94c-.19-.2-.41-.3-.65-.32-.24-.01-.57.12-.98.41l-.88.62c-.98.68-1.82,1.07-2.53,1.16-.7.09-1.36-.17-1.97-.79-.64-.65-.88-1.41-.71-2.29s.69-1.75,1.56-2.61c.95-.94,1.82-1.45,2.62-1.55.8-.1,1.55.09,2.25.56l-1.58,1.94c-.35-.2-.67-.28-.99-.25-.31.03-.65.23-1.03.6-.4.4-.62.74-.64,1.04s.05.54.24.73c.19.2.41.29.65.28.24-.01.58-.16,1.01-.46l.97-.68c1.04-.71,1.89-1.08,2.56-1.11s1.31.26,1.92.88c.64.65.9,1.4.78,2.26s-.66,1.77-1.63,2.72c-.93.92-1.85,1.48-2.77,1.68-.92.2-1.79-.07-2.63-.79l1.82-1.8c.38.27.75.36,1.1.28s.73-.31,1.12-.7c.4-.4.62-.74.65-1.03.03-.29-.06-.55-.28-.77Z"/>
      <path class="cls-1" d="M24.04,48.32l-4.12-4.74,2.01-1.75,3.82,4.39c.39.44.74.69,1.06.75.32.06.65-.06.98-.35.42-.36.64-.81.68-1.36.02-.25,0-.49-.07-.71s-.19-.44-.39-.67l-3.64-4.18,2.01-1.75,6.17,7.09-1.97,1.71-.79-.91c.07,1.26-.35,2.28-1.23,3.05-.76.66-1.52.94-2.29.82-.77-.11-1.51-.58-2.22-1.41Z"/>
      <path class="cls-1" d="M27.69,36.77l2.11-1.54.71.97c.01-1.24.46-2.18,1.33-2.82,1.01-.74,2-.82,2.99-.24.01-1.3.51-2.31,1.49-3.03.76-.55,1.5-.76,2.23-.63s1.42.64,2.06,1.52l3.79,5.19-2.17,1.58-3.54-4.84c-.33-.46-.64-.71-.92-.77-.28-.06-.57.03-.87.25-.18.13-.34.3-.47.49-.13.19-.22.42-.27.67-.03.2-.03.41.01.61.04.21.13.41.27.6l3.43,4.69-2.15,1.57-3.53-4.82c-.32-.44-.63-.69-.92-.75-.29-.07-.59,0-.89.23-.39.28-.62.68-.69,1.19-.02.18-.01.38.02.61s.14.47.33.72l3.33,4.55-2.15,1.57-5.55-7.58Z"/>
      <path class="cls-1" d="M42.55,32.01c-.56-.92-.88-1.81-.94-2.65-.06-.85.1-1.62.49-2.32.39-.7.98-1.29,1.78-1.78,1.24-.75,2.4-.96,3.47-.62,1.07.34,1.98,1.13,2.72,2.35l.46.75-5.5,3.35c.95,1.35,1.95,1.7,3.02,1.05.48-.29.79-.6.91-.93s.13-.68,0-1.06l2.14-1.3c.37.95.39,1.85.07,2.68-.32.83-1.02,1.58-2.1,2.23-1.28.78-2.49,1.01-3.62.71s-2.1-1.13-2.91-2.46ZM46.37,26.6c-.41-.18-.91-.09-1.51.28-.58.36-.91.77-.97,1.25-.06.48.06,1.03.35,1.65l3.34-2.03c-.4-.59-.8-.97-1.21-1.15Z"/>
      <path class="cls-1" d="M50.37,17.88l2.53-1.25,4.61,9.31,5.42-2.68.82,2.35-7.68,3.8-5.7-11.52Z"/>
      <path class="cls-1" d="M63.08,22.5l-2.4-5.8,2.46-1.02,2.22,5.37c.23.54.48.89.76,1.05.29.16.63.15,1.04-.02.51-.21.87-.57,1.08-1.07.1-.24.15-.46.16-.69.01-.22-.04-.48-.16-.75l-2.12-5.12,2.46-1.02,3.59,8.68-2.41,1-.46-1.11c-.34,1.22-1.05,2.05-2.14,2.5-.93.39-1.74.4-2.43.05-.69-.35-1.24-1.03-1.66-2.04Z"/>
      <path class="cls-1" d="M71.41,17.45c-.5-1.49-.55-2.78-.17-3.86.39-1.09,1.17-1.83,2.36-2.22.47-.16.94-.21,1.43-.18s.96.21,1.42.51l-1.39-4.16,2.54-.85,4.08,12.19-2.46.82-.36-1.08c-.18.54-.46,1.01-.83,1.39-.37.38-.84.67-1.44.87-.8.27-1.53.3-2.2.09-.67-.21-1.26-.61-1.77-1.22-.51-.61-.92-1.37-1.22-2.29ZM73.93,16.49c.33.98.74,1.61,1.23,1.89.49.28.99.34,1.49.17.61-.21,1.01-.58,1.19-1.13s.14-1.2-.11-1.95l-.14-.43c-.28-.84-.65-1.41-1.11-1.72-.46-.3-.98-.36-1.57-.16-.56.19-.94.55-1.15,1.09s-.15,1.28.17,2.22Z"/>
      <path class="cls-1" d="M85,14.8l.14-6.49,2.17-.54,3.11,5.59-.12-6.4,2.53-.63-.35,9.76-2.45.6-3.14-5.66-.09,6.46-2.5.62-4.84-8.48,2.62-.65,2.92,5.81Z"/>
      <path class="cls-1" d="M92.9,2.92l2.66-.49.39,2.11-2.65.49-.39-2.11ZM93.56,6.35l2.62-.48,1.71,9.24-2.62.48-1.71-9.24Z"/>
      <path class="cls-1" d="M105.11,13.17l-.11-.84c-.26.47-.61.85-1.04,1.15s-.94.48-1.55.56c-.83.11-1.56.01-2.17-.3s-1.11-.79-1.49-1.44c-.38-.65-.63-1.43-.75-2.33-.13-.95-.08-1.8.15-2.54.23-.74.61-1.34,1.16-1.81.54-.47,1.22-.75,2.03-.86.51-.07,1.01-.04,1.48.09.48.13.93.41,1.37.83l-.13-1,2.59-.35,1.08,8.04c.14,1.05.12,1.96-.08,2.73-.19.77-.59,1.39-1.2,1.87-.61.48-1.46.79-2.57.94-1.32.18-2.38.06-3.19-.34s-1.33-1.14-1.59-2.21l2.57-.35c.15.42.38.7.67.85.29.15.71.19,1.26.12.71-.1,1.18-.37,1.39-.82s.26-1.12.14-2ZM103.86,7.26c-.37-.4-.89-.55-1.55-.46-.57.08-1.01.34-1.33.79-.32.45-.41,1.11-.3,1.97.12.88.39,1.49.82,1.82.43.34.9.47,1.43.4.68-.09,1.15-.38,1.41-.85s.35-1.06.25-1.75l-.03-.25c-.1-.71-.33-1.27-.7-1.67Z"/>
      <path class="cls-1" d="M111.6.37l3.33-.09,3.54,9.39L121.54.09l3.27-.09.36,12.85-2.61.07-.24-8.58-2.77,8.67-2.09.06-3.19-8.43.24,8.51-2.55.07-.36-12.85Z"/>
      <path class="cls-1" d="M126.76,3.63l2.66.1-.34,9.39-2.66-.09.34-9.39ZM126.86.14l2.7.1-.08,2.14-2.7-.1.08-2.14Z"/>
      <path class="cls-1" d="M130.29,8.5c.09-1.08.35-1.97.8-2.7.45-.72,1.03-1.25,1.76-1.59.73-.34,1.56-.47,2.49-.39,1.45.12,2.5.63,3.17,1.54.67.91.94,2.08.82,3.5l-.07.88-6.42-.53c-.03,1.65.58,2.52,1.83,2.62.56.05.99-.03,1.28-.22s.5-.48.63-.85l2.49.21c-.26.99-.77,1.73-1.52,2.21-.75.49-1.75.68-3.01.57-1.5-.12-2.61-.64-3.34-1.56-.73-.92-1.03-2.15-.9-3.71ZM136.56,6.37c-.23-.39-.69-.61-1.38-.66-.68-.06-1.19.09-1.52.44-.33.35-.56.87-.69,1.54l3.89.32c.02-.71-.08-1.26-.31-1.64Z"/>
      <path class="cls-1" d="M145.35,12.1c.04-.27,0-.51-.14-.71-.13-.2-.44-.38-.91-.53l-1.02-.33c-1.13-.37-1.95-.81-2.44-1.32-.5-.51-.68-1.19-.55-2.05.13-.9.6-1.55,1.4-1.94.8-.39,1.81-.5,3.02-.32,1.32.19,2.26.58,2.81,1.16s.86,1.29.91,2.13l-2.5-.09c-.05-.4-.18-.71-.39-.94-.21-.23-.57-.38-1.1-.46-.56-.08-.96-.04-1.22.11-.25.16-.4.37-.44.63-.04.27.02.5.17.69.16.19.48.37.98.54l1.13.37c1.19.41,2,.86,2.43,1.37.43.51.58,1.2.45,2.07-.13.9-.58,1.57-1.34,1.99-.76.42-1.81.54-3.15.34-1.29-.19-2.3-.59-3.01-1.21-.71-.61-1.03-1.47-.95-2.58l2.53.37c.02.46.16.81.44,1.05.28.24.69.39,1.23.47.56.08.96.05,1.22-.1.25-.15.4-.38.45-.69Z"/>
      <path class="cls-1" d="M155.52,14.1l3.56-6.1,2.7.63-5.51,8.37-2.79-.65-1.26-9.94,2.82.66.47,7.04Z"/>
      <path class="cls-1" d="M159.7,15.12c.24-.79.63-1.34,1.18-1.65s1.2-.45,1.94-.43c.74.02,1.52.14,2.33.36l1.31.33.1-.33c.17-.55.17-.98.01-1.29-.16-.31-.49-.54-1-.69-.5-.15-.89-.17-1.19-.07-.3.1-.54.32-.73.64l-2.23-.89c.43-.85,1.04-1.39,1.84-1.62.79-.23,1.77-.18,2.92.17,1.36.41,2.24,1,2.66,1.79.42.79.45,1.77.09,2.96l-1.7,5.67-2.36-.71.31-1.05c-.47.28-.97.47-1.49.57-.52.09-1.11.05-1.75-.15-.91-.27-1.57-.73-2-1.37-.42-.64-.5-1.39-.25-2.25ZM162.17,15.69c-.1.33-.08.62.07.88s.44.44.89.58c.64.19,1.21.18,1.69-.04.48-.22.82-.63,1-1.22l.19-.62-1.21-.3c-.84-.21-1.45-.25-1.84-.12s-.65.42-.78.86Z"/>
      <path class="cls-1" d="M171.43,11.57l2.45.91-.42,1.11c.63-.36,1.22-.56,1.75-.58.53-.02,1.05.05,1.54.24.97.36,1.6.91,1.89,1.64.29.73.25,1.61-.13,2.63l-2.2,5.9-2.51-.94,2.02-5.43c.21-.56.25-1,.14-1.32-.12-.32-.39-.56-.82-.72-.25-.09-.51-.14-.78-.14s-.54.06-.79.19c-.23.11-.43.24-.59.4-.16.16-.3.39-.41.69l-1.92,5.16-2.5-.93,3.28-8.8Z"/>
      <path class="cls-1" d="M181.6,20.64c.68-1.42,1.54-2.38,2.57-2.89,1.04-.51,2.12-.49,3.24.05.44.21.83.5,1.15.87.32.37.54.82.66,1.35l1.9-3.96,2.42,1.16-5.56,11.59-2.34-1.12.49-1.02c-.51.26-1.03.4-1.56.42-.53.02-1.07-.11-1.64-.38-.76-.36-1.3-.85-1.64-1.47-.34-.61-.48-1.32-.42-2.11s.3-1.62.72-2.5ZM184.09,21.71c-.45.93-.59,1.67-.43,2.22.16.55.47.94.95,1.16.58.28,1.13.29,1.64.02.51-.27.93-.76,1.28-1.47l.2-.41c.38-.8.52-1.47.4-2-.12-.54-.46-.94-1.02-1.21-.53-.25-1.06-.26-1.58-.02-.52.24-1,.81-1.43,1.71Z"/>
      <path class="cls-1" d="M190.9,25.14c.53-.94,1.15-1.64,1.86-2.11.71-.47,1.46-.7,2.26-.7.8,0,1.61.23,2.42.69,1.26.72,2.01,1.63,2.23,2.73s-.02,2.28-.72,3.52l-.44.77-5.61-3.18c-.72,1.48-.53,2.53.55,3.15.49.28.91.39,1.26.34.35-.05.66-.22.93-.51l2.18,1.23c-.65.79-1.42,1.25-2.31,1.37-.89.13-1.88-.12-2.97-.74-1.31-.74-2.1-1.68-2.38-2.82-.28-1.14-.03-2.38.74-3.74ZM197.49,25.84c-.04-.45-.37-.84-.97-1.18-.6-.34-1.12-.42-1.56-.24-.45.18-.87.55-1.27,1.11l3.4,1.93c.32-.63.46-1.17.41-1.62Z"/>
      <path class="cls-1" d="M202.19,26.14l2.19,1.41-.67,1.04c1.08-.42,2.08-.33,3,.26.14.09.27.18.39.27.12.09.23.19.32.29l-1.49,1.76c-.12-.1-.23-.2-.34-.3s-.24-.18-.38-.28c-.24-.16-.49-.27-.75-.34-.26-.07-.53-.1-.82-.07s-.56.12-.81.27c-.25.15-.48.38-.67.68l-2.79,4.34-2.24-1.44,5.08-7.9Z"/>
      <path class="cls-1" d="M212.86,29.05l3.85,2.94c.96.74,1.63,1.46,2,2.17.37.71.51,1.4.4,2.06-.1.67-.39,1.3-.84,1.9-.5.65-1.06,1.11-1.69,1.38-.63.27-1.33.34-2.1.2l-1.13,5.89-2.36-1.8,1.1-5.14c-.08-.06-.15-.11-.23-.17s-.16-.11-.23-.17l-1.54-1.18-2.88,3.76-2.14-1.64,7.81-10.21ZM216.04,36.53c.36-.48.5-.94.41-1.4-.09-.46-.5-.96-1.22-1.51l-1.56-1.19-2.27,2.97,1.64,1.26c.71.54,1.29.78,1.74.71s.88-.35,1.26-.84Z"/>
      <path class="cls-1" d="M216.21,41.97c1.04-1.18,2.17-1.82,3.4-1.92,1.23-.1,2.4.34,3.51,1.33,1.12.99,1.71,2.09,1.75,3.28.04,1.19-.46,2.38-1.5,3.55-1.03,1.17-2.16,1.81-3.39,1.92-1.23.11-2.4-.33-3.52-1.33-1.12-.99-1.71-2.09-1.74-3.29s.46-2.38,1.49-3.55ZM218.27,43.74c-.58.66-.92,1.28-1.01,1.87-.09.59.12,1.12.65,1.58.53.47,1.09.62,1.67.46.58-.16,1.17-.57,1.75-1.23.58-.66.91-1.28,1-1.87.08-.59-.14-1.12-.67-1.59-.52-.46-1.07-.61-1.64-.46-.57.16-1.15.57-1.74,1.24Z"/>
      <path class="cls-1" d="M229.9,43.24l1.87,1.9-3.27,3.22c.71-.05,1.31.03,1.79.22.48.19.9.48,1.27.86.72.74,1.06,1.5,1.02,2.28-.04.79-.45,1.56-1.23,2.33l-4.49,4.42-1.88-1.91,4.13-4.07c.43-.42.65-.8.68-1.14.03-.34-.12-.67-.44-1-.18-.19-.4-.34-.65-.46-.25-.12-.51-.17-.79-.17-.25,0-.49.03-.7.11s-.43.23-.67.45l-3.92,3.87-1.87-1.9,9.15-9.02Z"/>
      <path class="cls-1" d="M230.8,55.94c.82-.71,1.64-1.16,2.46-1.36.82-.2,1.61-.17,2.37.1.75.27,1.44.76,2.05,1.47.95,1.1,1.34,2.21,1.18,3.32s-.79,2.14-1.87,3.07l-.67.58-4.21-4.88c-1.18,1.16-1.36,2.21-.54,3.15.37.43.72.67,1.07.74s.69.01,1.05-.17l1.63,1.9c-.88.52-1.76.69-2.63.51-.88-.18-1.73-.75-2.55-1.7-.98-1.14-1.41-2.29-1.29-3.45.12-1.17.77-2.26,1.95-3.28ZM236.77,58.82c.11-.43-.06-.92-.52-1.44-.45-.52-.91-.77-1.39-.75s-1.01.23-1.57.62l2.55,2.96c.51-.49.82-.95.93-1.39Z"/>
    </g>
  </g>
</svg>