<?xml version="1.0" encoding="UTF-8"?>
<svg id="Capa_2" data-name="Capa 2" xmlns="http://www.w3.org/2000/svg" viewBox="0 0 245.14 144.95">
  <defs>
    <style>
      .cls-1 {
        fill: #ebaf00;
      }

      .cls-2 {
        fill: #f7f7f7;
      }
    </style>
  </defs>
  <g id="Capa_1-2" data-name="Capa 1">
    <path class="cls-1" d="M122.57,22.38C54.88,22.38,0,77.26,0,144.95h245.14c0-67.69-54.88-122.57-122.57-122.57Z"/>
    <g>
      <path class="cls-2" d="M47.07,90.87l-12.87,6.93-5.4-9.99,23.13-12.33h11.97l-13.14,62.19h-13.5l9.81-46.8Z"/>
      <path class="cls-2" d="M117.54,96.45c.12,4.44-.36,9.15-1.44,14.13-1.08,5.34-2.8,10.19-5.17,14.54-2.37,4.35-5.42,7.8-9.13,10.35-3.72,2.55-8.19,3.82-13.41,3.82-6.18,0-10.97-1.53-14.35-4.59-3.39-3.06-5.24-7.29-5.54-12.69h12.78c.36,2.34,1.21,3.96,2.56,4.86s3.11,1.35,5.26,1.35c2.82,0,5.31-1.11,7.47-3.33,2.16-2.22,3.84-5.79,5.04-10.71.3-1.2.54-2.49.72-3.87-1.74,1.8-3.66,3.11-5.76,3.92-2.1.81-4.44,1.21-7.02,1.21-4.08,0-7.53-1.08-10.35-3.24-2.82-2.16-4.79-5.05-5.9-8.69-1.11-3.63-1.21-7.63-.31-12.01,1.2-5.46,3.9-9.78,8.1-12.96,4.2-3.18,9.39-4.77,15.57-4.77,4.74,0,8.62.98,11.66,2.93,3.03,1.95,5.29,4.62,6.79,8.01,1.5,3.39,2.31,7.3,2.43,11.74ZM104.4,96.81c.42-2.1.39-4.09-.09-5.98s-1.39-3.43-2.74-4.63c-1.35-1.2-3.14-1.8-5.36-1.8-2.7,0-4.95.72-6.75,2.16-1.8,1.44-3,3.54-3.6,6.3-.72,3.48-.44,6.45.85,8.91,1.29,2.46,3.56,3.69,6.79,3.69,2.46,0,4.74-.75,6.84-2.25,2.1-1.5,3.45-3.63,4.05-6.39Z"/>
      <path class="cls-2" d="M132.48,125.56c1.74,1.65,4.11,2.47,7.11,2.47,2.58,0,4.73-.61,6.44-1.84s2.8-2.98,3.29-5.27c.6-2.94.24-5.36-1.08-7.25-1.32-1.89-3.57-2.83-6.75-2.83h-5.67l2.16-10.53h5.4c2.58,0,4.77-.53,6.57-1.58,1.8-1.05,2.94-2.74,3.42-5.08.48-2.34.07-4.33-1.21-5.99-1.29-1.65-3.41-2.47-6.34-2.47s-5.25.65-6.93,1.94c-1.68,1.29-3,3.44-3.96,6.44l-12.15-1.44c1.02-5.46,3.55-9.88,7.6-13.28,4.05-3.39,9.61-5.08,16.7-5.08,4.38,0,8.19.83,11.43,2.47,3.24,1.65,5.62,3.96,7.16,6.93,1.53,2.97,1.87,6.44,1.04,10.4-.6,2.82-1.86,5.28-3.78,7.38-1.92,2.1-4.35,3.69-7.29,4.77,3.12,1.62,5.25,4.07,6.39,7.34,1.14,3.27,1.35,6.71.63,10.3-1.02,4.86-3.59,8.73-7.69,11.61-4.11,2.88-9.35,4.32-15.71,4.32-4.56,0-8.57-.86-12.02-2.56-3.45-1.71-6.06-4.15-7.83-7.34-1.77-3.18-2.51-6.93-2.21-11.25h12.78c-.06,3.3.78,5.78,2.52,7.43Z"/>
      <path class="cls-2" d="M181.26,125.56c1.74,1.65,4.11,2.47,7.11,2.47,2.58,0,4.73-.61,6.44-1.84s2.8-2.98,3.29-5.27c.6-2.94.24-5.36-1.08-7.25-1.32-1.89-3.57-2.83-6.75-2.83h-5.67l2.16-10.53h5.4c2.58,0,4.77-.53,6.57-1.58,1.8-1.05,2.94-2.74,3.42-5.08.48-2.34.07-4.33-1.21-5.99-1.29-1.65-3.41-2.47-6.34-2.47s-5.25.65-6.93,1.94c-1.68,1.29-3,3.44-3.96,6.44l-12.15-1.44c1.02-5.46,3.55-9.88,7.6-13.28,4.05-3.39,9.61-5.08,16.7-5.08,4.38,0,8.19.83,11.43,2.47,3.24,1.65,5.62,3.96,7.16,6.93,1.53,2.97,1.87,6.44,1.04,10.4-.6,2.82-1.86,5.28-3.78,7.38-1.92,2.1-4.35,3.69-7.29,4.77,3.12,1.62,5.25,4.07,6.39,7.34,1.14,3.27,1.35,6.71.63,10.3-1.02,4.86-3.59,8.73-7.69,11.61-4.11,2.88-9.35,4.32-15.71,4.32-4.56,0-8.57-.86-12.02-2.56-3.45-1.71-6.06-4.15-7.83-7.34-1.77-3.18-2.51-6.93-2.21-11.25h12.78c-.06,3.3.78,5.78,2.52,7.43Z"/>
    </g>
    <g>
      <path class="cls-1" d="M98.63,8.08c-.18-1.44-.08-2.7.3-3.76.38-1.07.98-1.92,1.82-2.56.84-.64,1.87-1.04,3.08-1.19,1.6-.2,2.85.04,3.78.71.92.67,1.6,1.68,2.03,3.03l-2.75.68c-.26-.73-.61-1.27-1.04-1.61s-1.04-.47-1.81-.38c-.96.12-1.66.58-2.08,1.4-.42.81-.55,1.89-.38,3.22.17,1.36.56,2.38,1.17,3.07.61.69,1.42.97,2.42.84.85-.1,1.44-.4,1.8-.88.35-.48.54-1.1.55-1.85l2.82-.35c.06,1.47-.32,2.7-1.14,3.71-.82,1-2.08,1.61-3.78,1.82-1.87.23-3.4-.17-4.6-1.19s-1.92-2.59-2.18-4.7Z"/>
      <path class="cls-1" d="M110.64.18l2.69-.18.14,2.14-2.69.18-.14-2.14ZM110.89,3.67l2.66-.18.63,9.38-2.66.18-.63-9.37Z"/>
      <path class="cls-1" d="M114.9,8.14c-.02-1.08.15-2,.52-2.77.37-.76.89-1.35,1.58-1.76.69-.41,1.5-.62,2.43-.65,1.45-.03,2.56.37,3.31,1.21s1.15,1.97,1.18,3.4l.02.88-6.44.14c.14,1.64.84,2.45,2.09,2.42.56-.01.98-.13,1.25-.35.27-.22.45-.53.54-.91l2.5-.05c-.16,1.01-.59,1.8-1.28,2.36-.7.56-1.67.85-2.93.88-1.5.03-2.66-.37-3.48-1.21-.82-.83-1.25-2.03-1.28-3.59ZM120.92,5.38c-.27-.36-.75-.53-1.44-.52-.68.01-1.17.21-1.46.6s-.47.92-.52,1.61l3.91-.08c-.05-.71-.21-1.24-.47-1.6Z"/>
      <path class="cls-1" d="M125.08,3.22l2.61.09-.04,1.24c.71-.91,1.62-1.35,2.71-1.31.17,0,.33.02.48.03.15.02.29.05.42.09l-.38,2.28c-.16-.03-.3-.06-.45-.08-.14-.02-.3-.04-.47-.04-.29,0-.56.02-.82.09-.26.07-.51.19-.74.36-.23.17-.42.39-.56.65-.14.26-.22.57-.23.93l-.17,5.16-2.66-.09.31-9.39Z"/>
      <path class="cls-1" d="M131.88,3.49l2.6.2-.1,1.24c.75-.88,1.68-1.28,2.76-1.19.17.01.33.03.47.06.15.02.29.06.42.1l-.48,2.26c-.15-.04-.3-.07-.44-.1-.14-.03-.3-.05-.46-.06-.29-.02-.56,0-.83.05-.26.06-.52.17-.76.33-.24.16-.44.37-.59.62-.15.25-.24.56-.27.92l-.4,5.15-2.66-.21.73-9.37Z"/>
      <path class="cls-1" d="M137.47,8.69c.14-1.07.45-1.96.93-2.65.48-.7,1.09-1.2,1.83-1.5.74-.3,1.58-.39,2.5-.27,1.44.19,2.47.76,3.09,1.7s.84,2.12.65,3.54l-.12.88-6.39-.84c-.11,1.64.46,2.55,1.69,2.71.56.07.99.02,1.29-.16s.53-.45.67-.82l2.48.33c-.31.98-.85,1.69-1.62,2.14-.77.45-1.79.59-3.03.43-1.49-.2-2.57-.77-3.26-1.72-.69-.95-.93-2.2-.72-3.74ZM143.83,6.87c-.21-.4-.66-.64-1.35-.73-.68-.09-1.19.03-1.54.37s-.6.84-.76,1.51l3.87.51c.06-.71-.02-1.26-.23-1.66Z"/>
    </g>
  </g>
</svg>