<?xml version="1.0" encoding="UTF-8"?>
<svg id="Capa_2" data-name="Capa 2" xmlns="http://www.w3.org/2000/svg" viewBox="0 0 245.14 144.79">
  <defs>
    <style>
      .cls-1 {
        fill: #ebaf00;
      }

      .cls-2 {
        fill: #f7f7f7;
      }
    </style>
  </defs>
  <g id="Capa_1-2" data-name="Capa 1">
    <path class="cls-1" d="M122.57,22.22C54.88,22.22,0,77.1,0,144.79h245.14c0-67.69-54.88-122.57-122.57-122.57Z"/>
    <g>
      <path class="cls-2" d="M47.75,90.71l-12.87,6.93-5.4-9.99,23.13-12.33h11.97l-13.14,62.19h-13.5l9.81-46.8Z"/>
      <path class="cls-2" d="M118.22,96.29c.12,4.44-.36,9.15-1.44,14.13-1.08,5.34-2.8,10.19-5.17,14.54-2.37,4.35-5.42,7.8-9.13,10.35-3.72,2.55-8.19,3.83-13.41,3.83-6.18,0-10.97-1.53-14.35-4.59-3.39-3.06-5.24-7.29-5.54-12.69h12.78c.36,2.34,1.21,3.96,2.56,4.86,1.35.9,3.11,1.35,5.26,1.35,2.82,0,5.31-1.11,7.47-3.33,2.16-2.22,3.84-5.79,5.04-10.71.3-1.2.54-2.49.72-3.87-1.74,1.8-3.66,3.11-5.76,3.92-2.1.81-4.44,1.21-7.02,1.21-4.08,0-7.53-1.08-10.35-3.24-2.82-2.16-4.79-5.05-5.9-8.69-1.11-3.63-1.21-7.63-.31-12.01,1.2-5.46,3.9-9.78,8.1-12.96,4.2-3.18,9.39-4.77,15.57-4.77,4.74,0,8.62.98,11.66,2.93,3.03,1.95,5.29,4.62,6.79,8.01,1.5,3.39,2.31,7.31,2.43,11.75ZM105.08,96.65c.42-2.1.39-4.09-.09-5.98-.48-1.89-1.39-3.43-2.74-4.64-1.35-1.2-3.14-1.8-5.36-1.8-2.7,0-4.95.72-6.75,2.16-1.8,1.44-3,3.54-3.6,6.3-.72,3.48-.44,6.45.85,8.91,1.29,2.46,3.56,3.69,6.79,3.69,2.46,0,4.74-.75,6.84-2.25,2.1-1.5,3.45-3.63,4.05-6.39Z"/>
      <path class="cls-2" d="M161.29,107.04c-3.27,3.33-7.33,6.83-12.2,10.48-1.92,1.44-3.87,2.88-5.85,4.32-1.98,1.44-3.93,2.88-5.85,4.32h24.93l-3.42,11.34h-43.83l2.25-10.44c3-2.16,6.01-4.32,9.04-6.48,3.03-2.16,6.04-4.35,9.04-6.57,4.38-3.18,7.86-5.86,10.44-8.05,2.58-2.19,4.51-4.14,5.81-5.85,1.29-1.71,2.11-3.41,2.47-5.09.66-2.82.36-5.17-.9-7.06-1.26-1.89-3.39-2.83-6.39-2.83s-5.26.72-6.97,2.16c-1.71,1.44-3.08,3.72-4.1,6.84l-12.6-1.44c1.26-5.64,3.93-10.23,8.01-13.77,4.08-3.54,9.72-5.31,16.92-5.31,4.74,0,8.71.96,11.93,2.88,3.21,1.92,5.49,4.56,6.84,7.92,1.35,3.36,1.54,7.26.58,11.7-.84,3.96-2.9,7.61-6.17,10.94Z"/>
      <path class="cls-2" d="M181.94,125.4c1.74,1.65,4.11,2.48,7.11,2.48,2.58,0,4.73-.61,6.44-1.84,1.71-1.23,2.8-2.98,3.29-5.27.6-2.94.24-5.35-1.08-7.25-1.32-1.89-3.57-2.83-6.75-2.83h-5.67l2.16-10.53h5.4c2.58,0,4.77-.53,6.57-1.58,1.8-1.05,2.94-2.75,3.42-5.08.48-2.34.07-4.33-1.21-5.99-1.29-1.65-3.41-2.47-6.34-2.47s-5.25.65-6.93,1.93c-1.68,1.29-3,3.44-3.96,6.44l-12.15-1.44c1.02-5.46,3.55-9.88,7.6-13.28,4.05-3.39,9.61-5.08,16.7-5.08,4.38,0,8.19.83,11.43,2.48,3.24,1.65,5.62,3.96,7.16,6.93s1.87,6.44,1.04,10.4c-.6,2.82-1.86,5.28-3.78,7.38-1.92,2.1-4.35,3.69-7.29,4.77,3.12,1.62,5.25,4.07,6.39,7.33,1.14,3.27,1.35,6.71.63,10.31-1.02,4.86-3.59,8.73-7.69,11.61-4.11,2.88-9.35,4.32-15.71,4.32-4.56,0-8.57-.86-12.02-2.57s-6.06-4.15-7.83-7.33c-1.77-3.18-2.51-6.93-2.21-11.25h12.78c-.06,3.3.78,5.78,2.52,7.42Z"/>
    </g>
    <g>
      <path class="cls-1" d="M28.61,31.26l3.76-2.7c1-.72,1.9-1.16,2.7-1.3.79-.15,1.5-.07,2.13.25.62.31,1.18.81,1.67,1.49.5.7.81,1.41.92,2.12s-.03,1.43-.42,2.14c-.39.71-1.07,1.42-2.06,2.13l-1.55,1.11,2.58,3.6-2.22,1.6-7.5-10.44ZM36.73,30.57c-.38-.54-.8-.83-1.25-.88-.45-.05-1.05.19-1.79.72l-1.54,1.1,2.27,3.16,1.55-1.11c.75-.54,1.16-1.04,1.22-1.51s-.09-.96-.46-1.48Z"/>
      <path class="cls-1" d="M39.54,27.8l2.21-1.39.66,1.05c.08-1.16.58-2.03,1.5-2.61.14-.09.28-.17.41-.24.13-.07.27-.12.4-.17l.96,2.1c-.15.06-.28.12-.41.19-.13.06-.27.14-.41.23-.24.15-.45.33-.63.54-.18.2-.31.44-.41.72-.1.27-.13.56-.1.85.03.29.14.59.33.9l2.76,4.37-2.25,1.42-5.02-7.94Z"/>
      <path class="cls-1" d="M43.52,21.22l2.33-1.36,1.08,1.85-2.33,1.36-1.08-1.85ZM45.29,24.23l2.3-1.34,4.73,8.12-2.3,1.34-4.73-8.12Z"/>
      <path class="cls-1" d="M48.96,21.94l2.34-1.16.54,1.08c.22-1.22.82-2.08,1.78-2.56,1.12-.56,2.11-.47,2.99.26.23-1.28.89-2.19,1.98-2.73.84-.42,1.6-.5,2.3-.24s1.29.87,1.78,1.85l2.87,5.75-2.4,1.2-2.67-5.37c-.25-.5-.51-.81-.78-.91-.27-.1-.56-.07-.9.1-.2.1-.39.24-.54.4s-.28.37-.38.62c-.07.19-.09.4-.09.61s.06.42.17.64l2.59,5.2-2.38,1.19-2.67-5.35c-.24-.48-.5-.78-.78-.9-.28-.12-.58-.09-.92.08-.43.21-.72.57-.88,1.06-.05.17-.08.37-.08.6,0,.23.06.49.2.77l2.51,5.04-2.38,1.19-4.19-8.41Z"/>
      <path class="cls-1" d="M64.43,19.75c-.4-1-.56-1.93-.48-2.77.08-.84.37-1.58.87-2.2.5-.62,1.19-1.11,2.06-1.45,1.35-.53,2.52-.54,3.52-.02,1,.52,1.76,1.45,2.29,2.77l.33.82-5.99,2.37c.71,1.49,1.64,2,2.8,1.54.52-.21.88-.46,1.05-.76.18-.3.24-.65.19-1.04l2.33-.92c.2,1,.08,1.89-.38,2.66-.46.77-1.27,1.38-2.44,1.85-1.4.55-2.62.58-3.68.08-1.06-.5-1.88-1.47-2.45-2.92ZM69.11,15.06c-.38-.25-.89-.24-1.53.02-.64.25-1.02.61-1.16,1.07s-.12,1.02.07,1.69l3.63-1.44c-.29-.64-.63-1.09-1-1.34Z"/>
      <path class="cls-1" d="M72.28,11.59l2.48-.82.39,1.18c.35-1.1,1.05-1.83,2.09-2.17.16-.05.31-.1.46-.13.15-.04.29-.06.42-.07l.43,2.27c-.16.03-.3.05-.45.08-.14.03-.29.07-.45.12-.27.09-.52.21-.74.37-.22.16-.41.35-.57.6-.16.24-.26.51-.3.8-.04.29,0,.61.11.95l1.63,4.9-2.53.84-2.96-8.92Z"/>
      <path class="cls-1" d="M80.08,16.13c-.22-.8-.17-1.47.13-2.02.3-.55.78-1.01,1.42-1.39.64-.37,1.37-.68,2.17-.93l1.29-.41-.09-.33c-.15-.56-.38-.92-.67-1.1s-.7-.2-1.21-.06c-.5.14-.85.33-1.05.57-.2.25-.29.56-.28.93l-2.37.42c-.08-.95.15-1.73.7-2.35.55-.62,1.41-1.08,2.57-1.4,1.37-.37,2.43-.33,3.2.12.77.45,1.32,1.27,1.64,2.46l1.56,5.71-2.38.65-.29-1.06c-.25.49-.57.92-.97,1.27-.39.36-.92.62-1.56.8-.91.25-1.72.21-2.42-.11-.7-.32-1.16-.91-1.4-1.78ZM82.49,15.31c.09.34.26.57.52.71.25.14.61.14,1.06.02.65-.18,1.12-.49,1.42-.93.3-.44.36-.96.2-1.57l-.17-.62-1.18.38c-.82.26-1.37.55-1.63.87-.26.32-.33.7-.21,1.14Z"/>
      <path class="cls-1" d="M91.58,9.19c-.23-1.35-.2-2.56.1-3.64.3-1.08.85-1.97,1.65-2.68.8-.71,1.84-1.17,3.12-1.39,1.5-.26,2.75-.11,3.73.45.98.56,1.69,1.42,2.13,2.6l-2.72.78c-.26-.57-.59-.98-1-1.25-.41-.27-1-.34-1.75-.21-.75.13-1.31.41-1.71.86-.39.45-.64,1-.73,1.68-.1.67-.08,1.43.07,2.27.24,1.38.69,2.4,1.36,3.05.67.65,1.6.88,2.78.67.98-.17,1.77-.52,2.38-1.05l-.36-2.08-2.47.42-.38-2.22,5.07-.87.95,5.54c-.58.68-1.3,1.25-2.17,1.71-.87.45-1.78.76-2.73.92-1.98.34-3.6.02-4.87-.95-1.27-.97-2.09-2.51-2.45-4.61Z"/>
      <path class="cls-1" d="M103.99,4.17l2.6-.27.13,1.24c.58-1,1.42-1.56,2.5-1.67.17-.02.33-.03.48-.03.15,0,.29,0,.43.03l-.07,2.3c-.16,0-.31-.01-.45-.02-.15,0-.3,0-.47.02-.29.03-.55.1-.8.2-.25.1-.48.26-.68.46s-.36.44-.47.72c-.1.28-.14.59-.1.95l.54,5.14-2.65.28-.98-9.34Z"/>
      <path class="cls-1" d="M110.65,10.28c-.04-.83.14-1.48.56-1.95s.98-.82,1.69-1.05c.71-.23,1.48-.38,2.32-.44l1.35-.12-.02-.34c-.03-.58-.17-.98-.42-1.22-.25-.24-.64-.35-1.17-.32-.51.03-.9.14-1.15.34-.25.2-.41.48-.47.84l-2.4-.1c.12-.94.52-1.66,1.19-2.14.67-.48,1.61-.76,2.81-.82,1.41-.07,2.45.2,3.1.8s1.01,1.52,1.08,2.76l.3,5.92-2.46.12-.05-1.1c-.35.43-.76.77-1.22,1.03-.46.26-1.03.41-1.7.45-.95.05-1.73-.16-2.34-.62-.61-.46-.94-1.14-.99-2.04ZM113.17,9.99c.02.35.14.62.36.8.22.19.56.27,1.03.25.67-.03,1.2-.23,1.58-.6.38-.37.56-.86.53-1.49l-.03-.65-1.24.12c-.86.08-1.45.25-1.78.5-.32.26-.47.61-.45,1.07Z"/>
      <path class="cls-1" d="M120.51,3.01l2.61.04-.02,1.19c.48-.56.96-.94,1.46-1.14.5-.2,1.01-.3,1.54-.29,1.03.02,1.81.32,2.33.91.52.59.77,1.43.75,2.52l-.1,6.3-2.68-.04.09-5.8c0-.6-.09-1.03-.31-1.29s-.55-.4-1.01-.4c-.26,0-.53.04-.79.13-.26.09-.49.24-.68.44-.18.18-.32.37-.42.57-.1.2-.15.47-.16.79l-.09,5.51-2.66-.04.15-9.4Z"/>
      <path class="cls-1" d="M134.46,0l8.86.92-.24,2.27-6.09-.63-.29,2.85,5.73.59-.24,2.27-5.73-.59-.32,3.12,6.45.67-.52,2.24-8.93-.92,1.32-12.78Z"/>
      <path class="cls-1" d="M147.92,7.92l2.18-2.37,2.66.46-3.71,3.88,2.41,5.43-2.87-.49-1.42-3.31-2.44,2.65-2.79-.48,4.12-4.15-2.22-5.05,2.95.5,1.14,2.93Z"/>
      <path class="cls-1" d="M153.76,6.21l2.52.61-.26,1.08c.91-.74,1.94-.98,3.11-.69,1.24.3,2.07.95,2.49,1.95s.46,2.23.11,3.69c-.37,1.53-1.01,2.65-1.91,3.37-.91.72-1.97.93-3.18.64-.5-.12-.95-.33-1.35-.64-.4-.3-.7-.71-.91-1.22l-1.05,4.36-2.59-.62,3.02-12.53ZM159.07,12.3c.24-1,.23-1.75-.03-2.25-.26-.5-.65-.8-1.17-.93-.67-.16-1.21-.04-1.65.34-.43.39-.74.95-.92,1.69l-.11.44c-.19.78-.19,1.44,0,1.97.19.53.62.88,1.29,1.04.58.14,1.1.04,1.55-.3.45-.34.79-1.01,1.03-2Z"/>
      <path class="cls-1" d="M162.43,13.2c.47-1.5,1.25-2.54,2.33-3.13,1.08-.59,2.33-.66,3.75-.21,1.43.45,2.41,1.22,2.93,2.29.52,1.07.55,2.36.07,3.86-.47,1.49-1.25,2.53-2.32,3.13-1.08.6-2.33.67-3.76.21-1.43-.45-2.41-1.22-2.93-2.3-.52-1.08-.55-2.36-.07-3.85ZM165.03,13.98c-.26.83-.32,1.54-.16,2.12.16.58.57.97,1.23,1.18.67.21,1.25.13,1.71-.26s.84-1,1.1-1.83.31-1.54.15-2.11-.58-.97-1.26-1.18c-.66-.21-1.23-.13-1.68.25s-.82.99-1.09,1.83Z"/>
      <path class="cls-1" d="M176.75,20.29c.1-.26.11-.5.02-.73-.08-.23-.34-.47-.77-.73l-.92-.55c-1.02-.62-1.72-1.23-2.08-1.84-.37-.61-.4-1.31-.08-2.12.33-.85.93-1.37,1.8-1.58s1.88-.08,3.02.37c1.24.48,2.07,1.07,2.48,1.76s.55,1.45.4,2.28l-2.41-.65c.04-.4-.02-.73-.17-1-.15-.27-.47-.5-.96-.7-.53-.21-.93-.26-1.21-.16-.28.1-.47.27-.57.51-.1.26-.1.49.01.71.11.22.39.46.83.74l1.02.61c1.07.66,1.75,1.29,2.06,1.89.3.59.29,1.3-.03,2.12-.33.85-.92,1.39-1.75,1.63s-1.88.11-3.15-.38c-1.22-.48-2.1-1.09-2.66-1.85-.55-.76-.67-1.67-.35-2.73l2.38.93c-.09.46-.02.83.19,1.12.22.29.58.54,1.09.74.52.21.93.26,1.21.17.28-.09.48-.28.59-.57Z"/>
      <path class="cls-1" d="M182.57,15.41l2.44,1.08-3.8,8.59-2.44-1.08,3.8-8.59ZM183.96,12.21l2.47,1.09-.87,1.96-2.47-1.09.87-1.96Z"/>
      <path class="cls-1" d="M184.04,21.2c.7-1.4,1.62-2.31,2.76-2.75,1.14-.44,2.36-.33,3.66.32,1.08.54,1.8,1.23,2.16,2.07.35.84.36,1.77.02,2.8l-2.41-.86c.14-.47.16-.88.07-1.22-.09-.35-.36-.63-.8-.85-.62-.31-1.18-.3-1.68.02s-.93.87-1.31,1.63-.55,1.44-.52,2.04c.04.6.37,1.06.99,1.37.47.24.89.29,1.24.15.36-.14.68-.42.97-.83l2.29,1.14c-.67,1.01-1.46,1.65-2.4,1.91-.94.26-1.98.11-3.13-.46-1.32-.66-2.14-1.56-2.46-2.7-.32-1.14-.13-2.4.55-3.76Z"/>
      <path class="cls-1" d="M195.02,21.48l2.33,1.3-4.57,8.21-2.33-1.3,4.57-8.21ZM196.71,18.42l2.36,1.31-1.04,1.87-2.36-1.31,1.04-1.87Z"/>
      <path class="cls-1" d="M196,27.38c.83-1.33,1.84-2.15,3.04-2.46,1.19-.3,2.42-.06,3.68.72,1.27.79,2.03,1.77,2.27,2.94.24,1.17-.05,2.42-.88,3.75-.83,1.32-1.83,2.14-3.02,2.45s-2.42.07-3.7-.72-2.03-1.78-2.27-2.95c-.24-1.17.06-2.42.88-3.75ZM198.33,28.78c-.46.74-.69,1.42-.68,2.01,0,.6.31,1.08.9,1.45.6.37,1.18.43,1.73.17.55-.26,1.06-.76,1.52-1.5.46-.74.69-1.41.67-2.01-.02-.6-.33-1.08-.93-1.46-.59-.37-1.16-.43-1.69-.17-.54.25-1.04.75-1.51,1.51ZM205.2,22.75l2.52,1.57-3.84,1-2.05-1.27,3.37-1.29Z"/>
      <path class="cls-1" d="M207.7,29.16l2.12,1.53-.7.96c.71-.18,1.33-.22,1.85-.1.52.12,1,.33,1.42.64.84.6,1.3,1.3,1.39,2.08s-.19,1.61-.83,2.5l-3.69,5.11-2.17-1.57,3.39-4.7c.35-.49.51-.9.48-1.24-.03-.34-.23-.64-.6-.91-.21-.15-.45-.27-.72-.34s-.54-.08-.81-.03c-.25.04-.48.12-.67.22-.2.11-.39.29-.58.56l-3.23,4.46-2.16-1.56,5.5-7.62Z"/>
    </g>
  </g>
</svg>