<?xml version="1.0" encoding="UTF-8"?>
<svg id="Capa_1" data-name="Capa 1" xmlns="http://www.w3.org/2000/svg" viewBox="0 0 792.7 301.8">
  <defs>
    <style>
      .cls-1 {
        fill: #2852d2;
      }

      .cls-2 {
        fill: #e83f15;
      }

      .cls-3 {
        fill: #ebaf00;
      }
    </style>
  </defs>
  <g>
    <path class="cls-3" d="M246.11,4.65h53.83c22.38,0,39.6,5.83,51.65,17.48s18.08,29.14,18.08,52.44-6.33,41.45-18.97,53.64c-12.65,12.19-30.36,18.28-53.14,18.28h-51.45V4.65ZM337.68,74.97c0-14.17-2.95-25.03-8.84-32.58-5.89-7.55-15.27-11.32-28.11-11.32h-23.84v88.99h21.85c13.37,0,23.21-3.9,29.5-11.72,6.29-7.81,9.44-18.94,9.44-33.37Z"/>
    <path class="cls-3" d="M392.91,4.65h31.19v141.84h-31.19V4.65Z"/>
  </g>
  <path class="cls-3" d="M332.52,236.27h-55.22v59.2h-31.19v-141.84h31.19v54.63h55.22v-54.63h31.39v141.84h-31.39v-59.2h0Z"/>
  <path class="cls-3" d="M476.14,264.08h-53.24l-10.73,31.39h-31.39l50.85-141.84h36.95l50.46,141.84h-32.38l-10.53-31.39h0ZM449.32,181.04l-18.87,57.81h37.94l-19.07-57.81Z"/>
  <path class="cls-3" d="M527.59,233.69v-83.63h31.39v85.02c0,11.26,2.09,19.64,6.26,25.13,4.17,5.5,10.96,8.24,20.36,8.24s16.49-2.75,20.46-8.24c3.97-5.49,5.96-13.87,5.96-25.13v-85.02h31.39v84.03c0,20.79-5,36.22-15,46.28-10,10.07-24.4,15.1-43.21,15.1s-33.11-5-42.91-15-14.7-25.59-14.7-46.78h0Z"/>
  <path class="cls-3" d="M749.08,254.15c0-4.24-1.29-7.88-3.87-10.93-2.58-3.04-7.78-5.23-15.59-6.56l-18.67-3.58c-15.1-2.78-26.46-7.38-34.07-13.81-7.62-6.42-11.42-15.86-11.42-28.31,0-9.27,2.35-17.08,7.05-23.44s11.29-11.16,19.77-14.4c8.47-3.24,18.34-4.87,29.6-4.87,12.32,0,22.41,1.72,30.29,5.17s13.91,8.18,18.08,14.2c4.17,6.03,6.79,12.95,7.85,20.76l-30.2,3.77c-1.72-6.62-4.47-11.49-8.24-14.6s-9.9-4.67-18.37-4.67c-9.01,0-15.43,1.52-19.27,4.57s-5.76,6.95-5.76,11.72,1.46,8.41,4.37,10.93c2.91,2.52,8.01,4.5,15.3,5.96l19.47,3.77c15.76,3.05,27.21,7.92,34.37,14.6,7.15,6.69,10.73,16.13,10.73,28.31,0,13.38-4.84,24.14-14.5,32.28-9.67,8.14-23.97,12.22-42.91,12.22s-32.45-3.84-42.91-11.52c-10.46-7.68-16.36-19.53-17.68-35.56h30.99c1.19,7.68,4.27,13.31,9.24,16.89s12.22,5.36,21.75,5.36,15.53-1.72,19.17-5.17c3.64-3.44,5.46-7.81,5.46-13.11l-.03.02Z"/>
  <g>
    <circle class="cls-1" cx="172.82" cy="117.8" r="15.27"/>
    <circle class="cls-1" cx="172.82" cy="70.11" r="15.27"/>
    <path class="cls-2" d="M157.34,150.21v60.97c0,3.71-.54,6.73-1.65,9.07s-2.68,4.55-4.74,6.61c-2.2,2.34-4.78,4.07-7.74,5.16-2.96,1.11-5.95,1.65-8.99,1.65-5.22,0-9.11-1.47-11.65-4.43-2.54-2.96-3.83-7.88-3.83-14.77V4.65h-30.74v70.22c-3.85-4.96-8.36-8.53-13.52-10.74-5.16-2.2-10.58-3.31-16.22-3.31-14.31,0-25.56,5.2-33.74,15.6-8.2,10.38-12.29,24.59-12.29,42.61,0,11.15,1.65,20.96,4.96,29.41,3.29,8.46,8.22,15.04,14.75,19.71,6.53,4.68,14.63,7.03,24.25,7.03,7.17,0,13.42-1.41,18.8-4.23,4.9-2.58,9.25-6.17,13-10.8v60.1c0,12.52,3.02,22.13,9.07,28.8,6.07,6.67,15.01,10.02,26.83,10.02,6.07,0,11.81-1.17,17.25-3.51,5.44-2.34,10.84-6.61,16.2-12.8v52.64h30.55v-145.19h-30.55,0ZM82.31,142.25c-3.93,5.3-9.61,7.96-17.03,7.96-6.05,0-11.25-2.44-15.58-7.34-4.35-4.88-6.51-13.24-6.51-25.07s2.1-19.69,6.29-24.77c4.21-5.1,9.67-7.64,16.41-7.64,7.15,0,12.66,2.48,16.51,7.42,3.85,4.96,5.78,12.52,5.78,22.71v5.16c0,9.09-1.96,16.28-5.87,21.57Z"/>
  </g>
</svg>