<?xml version="1.0" encoding="UTF-8"?>
<svg id="Capa_2" data-name="Capa 2" xmlns="http://www.w3.org/2000/svg" viewBox="0 0 245.14 145.27">
  <defs>
    <style>
      .cls-1 {
        fill: #ebaf00;
      }

      .cls-2 {
        fill: #f7f7f7;
      }
    </style>
  </defs>
  <g id="Capa_1-2" data-name="Capa 1">
    <path class="cls-1" d="M122.57,22.69C54.88,22.69,0,77.57,0,145.27h245.14c0-67.69-54.88-122.57-122.57-122.57Z"/>
    <g>
      <path class="cls-2" d="M47.07,91.18l-12.87,6.93-5.4-9.99,23.13-12.33h11.97l-13.14,62.19h-13.5l9.81-46.8Z"/>
      <path class="cls-2" d="M117.54,96.76c.12,4.44-.36,9.15-1.44,14.13-1.08,5.34-2.8,10.19-5.17,14.54-2.37,4.35-5.42,7.8-9.13,10.35-3.72,2.55-8.19,3.83-13.41,3.83-6.18,0-10.97-1.53-14.35-4.59-3.39-3.06-5.24-7.29-5.54-12.69h12.78c.36,2.34,1.21,3.96,2.56,4.86,1.35.9,3.11,1.35,5.26,1.35,2.82,0,5.31-1.11,7.47-3.33,2.16-2.22,3.84-5.79,5.04-10.71.3-1.2.54-2.49.72-3.87-1.74,1.8-3.66,3.11-5.76,3.92-2.1.81-4.44,1.21-7.02,1.21-4.08,0-7.53-1.08-10.35-3.24-2.82-2.16-4.79-5.05-5.9-8.69-1.11-3.63-1.21-7.63-.31-12.01,1.2-5.46,3.9-9.78,8.1-12.96,4.2-3.18,9.39-4.77,15.57-4.77,4.74,0,8.62.98,11.66,2.93,3.03,1.95,5.29,4.62,6.79,8.01,1.5,3.39,2.31,7.31,2.43,11.75ZM104.4,97.12c.42-2.1.39-4.09-.09-5.98-.48-1.89-1.39-3.43-2.74-4.64-1.35-1.2-3.14-1.8-5.36-1.8-2.7,0-4.95.72-6.75,2.16-1.8,1.44-3,3.54-3.6,6.3-.72,3.48-.44,6.45.85,8.91,1.29,2.46,3.56,3.69,6.79,3.69,2.46,0,4.74-.75,6.84-2.25,2.1-1.5,3.45-3.63,4.05-6.39Z"/>
      <path class="cls-2" d="M160.61,107.52c-3.27,3.33-7.33,6.83-12.2,10.48-1.92,1.44-3.87,2.88-5.85,4.32-1.98,1.44-3.93,2.88-5.85,4.32h24.93l-3.42,11.34h-43.83l2.25-10.44c3-2.16,6.01-4.32,9.04-6.48,3.03-2.16,6.04-4.35,9.04-6.57,4.38-3.18,7.86-5.86,10.44-8.05,2.58-2.19,4.51-4.14,5.81-5.85,1.29-1.71,2.11-3.41,2.47-5.09.66-2.82.36-5.17-.9-7.06-1.26-1.89-3.39-2.83-6.39-2.83s-5.26.72-6.97,2.16c-1.71,1.44-3.08,3.72-4.1,6.84l-12.6-1.44c1.26-5.64,3.93-10.23,8.01-13.77,4.08-3.54,9.72-5.31,16.92-5.31,4.74,0,8.71.96,11.93,2.88,3.21,1.92,5.49,4.56,6.84,7.92,1.35,3.36,1.54,7.26.58,11.7-.84,3.96-2.9,7.61-6.17,10.94Z"/>
      <path class="cls-2" d="M169.97,110.17c2.61-2.22,5.41-3.84,8.42-4.86-2.46-1.32-4.25-3.48-5.36-6.48-1.11-3-1.34-6.06-.67-9.18,1.02-4.62,3.61-8.37,7.79-11.25,4.17-2.88,9.52-4.32,16.06-4.32,4.5,0,8.43.83,11.79,2.48,3.36,1.65,5.82,3.99,7.38,7.02,1.56,3.03,1.89,6.62.99,10.75-.66,3.12-2.04,5.67-4.14,7.65-2.1,1.98-4.56,3.48-7.38,4.5,3.06,1.32,5.28,3.59,6.66,6.79,1.38,3.21,1.65,6.74.81,10.58-1.08,4.98-3.93,8.85-8.55,11.61-4.62,2.76-10.32,4.14-17.1,4.14-4.92,0-9.17-.84-12.73-2.52-3.57-1.68-6.2-4.06-7.88-7.15-1.68-3.09-2.07-6.71-1.17-10.85.78-3.72,2.47-6.69,5.08-8.91ZM179.55,126.28c1.8,1.8,4.47,2.7,8.01,2.7,3.12,0,5.76-.6,7.92-1.8,2.16-1.2,3.54-3.12,4.14-5.76.66-3.24.12-5.72-1.62-7.43-1.74-1.71-4.38-2.56-7.92-2.56s-6.33.66-8.37,1.98c-2.04,1.32-3.3,3.15-3.78,5.49-.72,3.12-.18,5.58,1.62,7.38ZM185.9,98.56c1.47,1.74,3.76,2.61,6.88,2.61,2.76,0,5.18-.57,7.25-1.71,2.07-1.14,3.38-2.94,3.92-5.4.66-2.94.21-5.25-1.35-6.93-1.56-1.68-3.9-2.52-7.02-2.52-3.3,0-5.84.66-7.6,1.98-1.77,1.32-2.9,3.03-3.38,5.13-.6,2.82-.17,5.1,1.3,6.84Z"/>
    </g>
    <g>
      <path class="cls-1" d="M19.74,39l3.76-3.11c1.56-1.29,3.1-1.88,4.62-1.76,1.51.12,2.94.99,4.29,2.62,1.36,1.65,1.95,3.26,1.77,4.84s-1.07,3.03-2.66,4.34l-3.59,2.97-8.19-9.91ZM30.2,38.62c-.82-.99-1.65-1.58-2.5-1.76-.85-.19-1.72.09-2.62.83l-1.67,1.38,5.14,6.21,1.53-1.26c.93-.77,1.39-1.61,1.38-2.52s-.43-1.87-1.27-2.88Z"/>
      <path class="cls-1" d="M29.66,30.97l2.17-1.6,1.27,1.72-2.17,1.6-1.27-1.72ZM31.75,33.77l2.14-1.58,5.57,7.57-2.15,1.58-5.57-7.57Z"/>
      <path class="cls-1" d="M35.07,31.32l2.16-1.47.7,1.03c.04-1.16.51-2.05,1.41-2.66.14-.09.27-.18.4-.25.13-.07.26-.13.39-.18l1.04,2.06c-.14.07-.28.14-.41.2-.13.07-.26.15-.4.24-.24.16-.44.35-.61.56-.17.21-.3.45-.38.73-.09.28-.11.56-.07.85.04.29.16.59.36.88l2.91,4.27-2.2,1.5-5.3-7.76Z"/>
      <path class="cls-1" d="M42.69,31.88c-.56-.92-.87-1.81-.94-2.65-.06-.84.1-1.62.49-2.32.39-.7.98-1.29,1.78-1.78,1.24-.75,2.4-.96,3.47-.61,1.07.35,1.98,1.13,2.72,2.35l.46.75-5.51,3.34c.95,1.35,1.95,1.7,3.02,1.05.48-.29.79-.6.91-.93.12-.33.13-.68,0-1.06l2.14-1.3c.37.96.39,1.85.07,2.68s-1.02,1.58-2.1,2.23c-1.28.78-2.49,1.01-3.62.7-1.13-.31-2.1-1.13-2.91-2.47ZM46.52,26.47c-.41-.18-.91-.09-1.51.27-.58.35-.91.77-.97,1.25-.06.48.06,1.03.35,1.65l3.34-2.03c-.4-.59-.8-.97-1.21-1.15Z"/>
      <path class="cls-1" d="M51.04,26.8c-.72-1.38-.92-2.67-.6-3.85.32-1.18,1.12-2.11,2.41-2.78,1.08-.56,2.06-.74,2.94-.53s1.65.75,2.28,1.62l-2.11,1.44c-.3-.39-.61-.64-.95-.77-.34-.13-.72-.08-1.16.15-.62.32-.94.78-.97,1.37-.03.59.15,1.26.54,2.02.39.76.84,1.3,1.35,1.62.51.32,1.07.33,1.69,0,.47-.24.75-.55.85-.92s.06-.79-.11-1.27l2.27-1.18c.43,1.13.47,2.15.13,3.07-.34.91-1.08,1.67-2.21,2.26-1.31.68-2.52.81-3.63.4-1.11-.42-2.02-1.3-2.72-2.65Z"/>
      <path class="cls-1" d="M59.47,22.44c-.63-1.43-.75-2.72-.35-3.88s1.26-2.03,2.58-2.61c1.11-.49,2.1-.6,2.97-.33.87.26,1.59.86,2.17,1.77l-2.2,1.3c-.27-.41-.57-.68-.9-.83s-.72-.13-1.17.07c-.64.28-.99.71-1.06,1.3-.07.59.07,1.27.41,2.05s.76,1.35,1.24,1.7c.48.36,1.05.4,1.68.11.48-.21.79-.5.91-.86.12-.36.12-.79-.02-1.28l2.34-1.03c.35,1.16.33,2.18-.06,3.07-.4.89-1.18,1.59-2.36,2.11-1.35.59-2.57.65-3.65.16s-1.93-1.43-2.54-2.82Z"/>
      <path class="cls-1" d="M65.42,10.92l2.52-.97.77,2-2.52.97-.77-2ZM66.7,14.17l2.48-.96,3.39,8.76-2.49.96-3.39-8.76Z"/>
      <path class="cls-1" d="M71.85,17.19c-.49-1.49-.48-2.79.05-3.9s1.5-1.9,2.91-2.37c1.42-.47,2.66-.43,3.71.13,1.05.56,1.83,1.59,2.32,3.08.49,1.48.48,2.78-.05,3.89-.52,1.11-1.49,1.91-2.92,2.38s-2.66.42-3.72-.14-1.83-1.59-2.32-3.07ZM74.17,7.17l2.82-.93-1.69,3.59-2.29.76,1.16-3.42ZM74.42,16.3c.28.83.65,1.44,1.11,1.81.47.38,1.03.46,1.69.24.67-.22,1.08-.63,1.24-1.22.15-.59.09-1.3-.18-2.13-.28-.83-.65-1.43-1.12-1.8-.47-.37-1.04-.44-1.71-.22-.66.22-1.07.62-1.22,1.19-.15.58-.09,1.28.19,2.13Z"/>
      <path class="cls-1" d="M80.71,9.33l2.53-.65.29,1.15c.31-.66.68-1.16,1.11-1.48.42-.33.89-.55,1.4-.69,1-.26,1.83-.17,2.48.27.66.43,1.12,1.18,1.39,2.24l1.56,6.1-2.6.67-1.44-5.62c-.15-.58-.36-.97-.64-1.16-.28-.19-.64-.24-1.08-.12-.26.07-.5.18-.72.33-.23.16-.41.36-.54.6-.13.22-.22.44-.26.66-.04.22-.02.49.06.8l1.37,5.34-2.58.66-2.33-9.1Z"/>
      <path class="cls-1" d="M94.23,10.98c-.25-1.55-.1-2.83.46-3.84.56-1.01,1.46-1.61,2.69-1.81.49-.08.97-.06,1.44.06.47.12.91.36,1.31.74l-.7-4.34,2.65-.43,2.05,12.69-2.56.41-.18-1.12c-.27.51-.62.92-1.04,1.23-.42.32-.94.53-1.56.63-.83.13-1.56.05-2.19-.27s-1.14-.81-1.54-1.49c-.4-.68-.68-1.5-.84-2.46ZM96.88,10.45c.17,1.02.47,1.71.91,2.07.44.36.92.5,1.44.41.64-.1,1.09-.41,1.36-.92s.33-1.16.21-1.94l-.07-.44c-.14-.88-.41-1.5-.81-1.87-.4-.37-.91-.51-1.53-.41-.58.09-1.02.39-1.31.89-.29.5-.36,1.24-.2,2.22Z"/>
      <path class="cls-1" d="M104.45,9.37c-.1-1.08,0-2.01.32-2.8.31-.79.8-1.41,1.46-1.87.66-.46,1.45-.73,2.38-.82,1.45-.13,2.58.19,3.39.97.81.78,1.29,1.88,1.42,3.3l.08.88-6.42.59c.26,1.63,1.01,2.38,2.25,2.27.56-.05.97-.2,1.23-.44.25-.24.41-.56.47-.95l2.49-.23c-.09,1.02-.46,1.83-1.11,2.44s-1.61.97-2.86,1.09c-1.49.14-2.68-.18-3.56-.96-.88-.77-1.39-1.94-1.53-3.49ZM110.26,6.18c-.29-.34-.78-.48-1.48-.42-.68.06-1.15.3-1.42.7-.26.4-.4.95-.41,1.64l3.89-.36c-.1-.7-.3-1.22-.59-1.56Z"/>
      <path class="cls-1" d="M125.64,7.61l-5-.08-.09,5.36-2.83-.05.21-12.85,2.83.05-.08,4.95,5,.08.08-4.95,2.84.05-.21,12.85-2.84-.05.09-5.36Z"/>
      <path class="cls-1" d="M129.25,10.42c.06-.83.33-1.45.8-1.86.47-.42,1.07-.69,1.81-.83s1.52-.18,2.36-.14l1.35.05.03-.34c.04-.57-.04-1-.26-1.27-.22-.27-.59-.42-1.12-.46-.51-.04-.91.02-1.18.19-.27.17-.46.42-.57.78l-2.37-.4c.24-.92.72-1.58,1.45-1.97.73-.4,1.69-.55,2.89-.46,1.41.11,2.4.5,2.98,1.18.57.68.81,1.64.72,2.87l-.45,5.91-2.46-.19.08-1.09c-.4.38-.85.67-1.34.87-.49.2-1.07.28-1.74.23-.95-.07-1.69-.38-2.24-.91-.55-.54-.79-1.25-.72-2.15ZM131.8,10.46c-.03.35.06.63.25.84.19.21.52.34.99.37.67.05,1.22-.08,1.65-.4.43-.32.67-.79.71-1.41l.05-.65-1.24-.04c-.86-.03-1.47.06-1.83.28-.35.21-.55.55-.58,1Z"/>
      <path class="cls-1" d="M139.95,4.46l2.58.37-.17,1.18c.54-.49,1.07-.81,1.59-.95.52-.14,1.04-.17,1.56-.1,1.02.15,1.75.54,2.19,1.2s.58,1.52.43,2.6l-.89,6.24-2.66-.38.82-5.74c.08-.59.04-1.03-.15-1.32s-.5-.46-.95-.53c-.26-.04-.53-.03-.79.03-.27.06-.51.18-.73.35-.2.15-.37.32-.49.51-.12.19-.21.44-.25.76l-.78,5.45-2.64-.38,1.33-9.3Z"/>
      <path class="cls-1" d="M150.15,5.98l2.55.54-.25,1.16c.58-.45,1.13-.73,1.65-.83.53-.1,1.05-.1,1.56.01,1.01.22,1.71.66,2.11,1.34.39.68.48,1.55.25,2.62l-1.32,6.16-2.62-.56,1.21-5.67c.12-.59.11-1.03-.06-1.33-.16-.3-.47-.5-.91-.59-.26-.06-.52-.06-.8-.02s-.52.14-.75.3c-.21.14-.39.3-.53.48s-.24.43-.31.74l-1.15,5.39-2.61-.56,1.96-9.19Z"/>
      <path class="cls-1" d="M158.58,12.71c.3-1.04.73-1.87,1.31-2.49.58-.62,1.25-1.03,2.03-1.22.78-.19,1.62-.16,2.52.1,1.4.4,2.33,1.11,2.81,2.13.48,1.02.52,2.22.13,3.59l-.24.85-6.2-1.77c-.35,1.61.08,2.59,1.28,2.93.54.16.98.17,1.3.03.33-.13.59-.37.78-.71l2.41.69c-.45.92-1.09,1.54-1.92,1.88-.83.33-1.85.32-3.06-.02-1.44-.41-2.43-1.14-2.97-2.18s-.59-2.31-.17-3.81ZM165.15,11.84c-.15-.42-.56-.73-1.23-.92-.66-.19-1.18-.14-1.58.14s-.72.74-.97,1.38l3.76,1.07c.16-.69.17-1.25.02-1.67Z"/>
      <path class="cls-1" d="M172.65,19.18c.09-.26.09-.5,0-.73-.09-.22-.36-.46-.79-.7l-.94-.53c-1.04-.59-1.75-1.18-2.14-1.77-.39-.6-.43-1.3-.15-2.12.31-.86.89-1.4,1.76-1.63s1.87-.14,3.03.27c1.25.45,2.1,1.01,2.53,1.69.43.68.59,1.43.47,2.27l-2.43-.58c.03-.4-.04-.73-.2-1-.16-.27-.49-.49-.99-.67-.53-.19-.94-.23-1.22-.13s-.46.28-.55.53c-.09.26-.08.5.03.71s.4.45.85.71l1.04.58c1.09.63,1.79,1.24,2.11,1.82s.33,1.29.04,2.12c-.31.86-.87,1.42-1.7,1.69s-1.88.17-3.16-.28c-1.23-.44-2.14-1.03-2.71-1.77-.58-.74-.72-1.65-.43-2.71l2.41.86c-.07.46,0,.83.22,1.11s.6.52,1.12.7c.53.19.94.23,1.21.14.28-.1.47-.29.57-.59Z"/>
      <path class="cls-1" d="M183.15,12.22l3.01,1.43-1.12,9.97,7.08-7.13,2.96,1.41-5.53,11.6-2.36-1.12,3.69-7.75-6.41,6.46-1.89-.9,1-8.96-3.66,7.69-2.31-1.1,5.53-11.6Z"/>
      <path class="cls-1" d="M192.64,26.03c.55-.93,1.17-1.63,1.89-2.09.71-.46,1.47-.68,2.27-.67.8,0,1.61.25,2.41.72,1.25.73,1.98,1.65,2.19,2.76s-.05,2.28-.77,3.51l-.45.76-5.56-3.25c-.74,1.47-.57,2.52.51,3.16.49.28.9.4,1.25.36.35-.05.66-.21.94-.5l2.16,1.26c-.66.78-1.44,1.23-2.33,1.34-.89.11-1.87-.15-2.96-.78-1.29-.76-2.07-1.71-2.34-2.85-.26-1.14,0-2.39.79-3.73ZM199.21,26.82c-.04-.45-.36-.85-.96-1.2-.59-.35-1.11-.43-1.56-.26-.45.17-.88.54-1.29,1.09l3.37,1.97c.33-.63.47-1.17.43-1.61Z"/>
      <path class="cls-1" d="M197.87,36.09c.17.18.31.33.43.44s.25.21.38.3c.29.19.57.26.86.2s.65-.26,1.1-.59l.64-.46,1.67-9.47,2.4,1.62-1.53,6.26,5.05-3.89,2.32,1.56-8.71,5.92c-.7.48-1.31.84-1.82,1.08-.52.24-.99.34-1.43.32-.44-.03-.89-.2-1.37-.52-.28-.19-.54-.39-.78-.61-.24-.22-.46-.47-.65-.74l1.46-1.4Z"/>
      <path class="cls-1" d="M208.35,35.92c.66-.86,1.37-1.47,2.14-1.83.76-.37,1.54-.49,2.34-.38.79.11,1.56.45,2.3,1.02,1.15.88,1.76,1.89,1.83,3.02.07,1.12-.34,2.25-1.21,3.39l-.54.7-5.11-3.93c-.92,1.37-.88,2.43.11,3.19.45.34.85.51,1.2.51s.68-.13.99-.37l1.98,1.53c-.76.69-1.58,1.03-2.48,1.04-.89,0-1.84-.38-2.84-1.15-1.19-.91-1.84-1.95-1.96-3.12-.12-1.17.3-2.37,1.25-3.6ZM214.77,37.54c.02-.45-.25-.88-.8-1.31-.54-.42-1.05-.57-1.52-.45-.47.12-.94.42-1.41.92l3.1,2.38c.4-.58.61-1.1.63-1.55Z"/>
      <path class="cls-1" d="M219.38,38.48l1.98,1.7-.81.94c1.13-.26,2.11-.04,2.93.67.13.11.24.22.35.32.11.11.2.22.27.33l-1.72,1.53c-.1-.12-.2-.23-.3-.34-.1-.11-.21-.22-.34-.33-.22-.19-.45-.34-.7-.45-.25-.11-.51-.17-.81-.18-.29-.01-.57.04-.84.15-.27.11-.53.31-.76.58l-3.37,3.91-2.02-1.74,6.13-7.12Z"/>
    </g>
  </g>
</svg>