<?xml version="1.0" encoding="UTF-8"?>
<svg id="Capa_2" data-name="Capa 2" xmlns="http://www.w3.org/2000/svg" viewBox="0 0 245.14 144.63">
  <defs>
    <style>
      .cls-1 {
        fill: #ebaf00;
      }

      .cls-2 {
        fill: #f7f7f7;
      }
    </style>
  </defs>
  <g id="Capa_1-2" data-name="Capa 1">
    <path class="cls-1" d="M122.57,22.05C54.88,22.05,0,76.93,0,144.63h245.14c0-67.69-54.88-122.57-122.57-122.57Z"/>
    <g>
      <path class="cls-2" d="M47.07,90.54l-12.87,6.93-5.4-9.99,23.13-12.33h11.97l-13.14,62.19h-13.5l9.81-46.8Z"/>
      <path class="cls-2" d="M117.54,96.12c.12,4.44-.36,9.15-1.44,14.13-1.08,5.34-2.8,10.19-5.17,14.54-2.37,4.35-5.42,7.8-9.13,10.35-3.72,2.55-8.19,3.83-13.41,3.83-6.18,0-10.97-1.53-14.35-4.59-3.39-3.06-5.24-7.29-5.54-12.69h12.78c.36,2.34,1.21,3.96,2.56,4.86,1.35.9,3.11,1.35,5.26,1.35,2.82,0,5.31-1.11,7.47-3.33,2.16-2.22,3.84-5.79,5.04-10.71.3-1.2.54-2.49.72-3.87-1.74,1.8-3.66,3.11-5.76,3.92-2.1.81-4.44,1.21-7.02,1.21-4.08,0-7.53-1.08-10.35-3.24-2.82-2.16-4.79-5.05-5.9-8.69-1.11-3.63-1.21-7.63-.31-12.01,1.2-5.46,3.9-9.78,8.1-12.96,4.2-3.18,9.39-4.77,15.57-4.77,4.74,0,8.62.98,11.66,2.93,3.03,1.95,5.29,4.62,6.79,8.01,1.5,3.39,2.31,7.31,2.43,11.75ZM104.4,96.48c.42-2.1.39-4.09-.09-5.98-.48-1.89-1.39-3.43-2.74-4.64-1.35-1.2-3.14-1.8-5.36-1.8-2.7,0-4.95.72-6.75,2.16-1.8,1.44-3,3.54-3.6,6.3-.72,3.48-.44,6.45.85,8.91,1.29,2.46,3.56,3.69,6.79,3.69,2.46,0,4.74-.75,6.84-2.25,2.1-1.5,3.45-3.63,4.05-6.39Z"/>
      <path class="cls-2" d="M160.61,106.88c-3.27,3.33-7.33,6.83-12.2,10.48-1.92,1.44-3.87,2.88-5.85,4.32-1.98,1.44-3.93,2.88-5.85,4.32h24.93l-3.42,11.34h-43.83l2.25-10.44c3-2.16,6.01-4.32,9.04-6.48,3.03-2.16,6.04-4.35,9.04-6.57,4.38-3.18,7.86-5.86,10.44-8.05,2.58-2.19,4.51-4.14,5.81-5.85,1.29-1.71,2.11-3.41,2.47-5.09.66-2.82.36-5.17-.9-7.06-1.26-1.89-3.39-2.83-6.39-2.83s-5.26.72-6.97,2.16c-1.71,1.44-3.08,3.72-4.1,6.84l-12.6-1.44c1.26-5.64,3.93-10.23,8.01-13.77,4.08-3.54,9.72-5.31,16.92-5.31,4.74,0,8.71.96,11.93,2.88,3.21,1.92,5.49,4.56,6.84,7.92,1.35,3.36,1.54,7.26.58,11.7-.84,3.96-2.9,7.61-6.17,10.94Z"/>
      <path class="cls-2" d="M166.77,119.97h13.05c.12,2.64.86,4.61,2.21,5.9,1.35,1.29,3.4,1.93,6.17,1.93s4.86-.75,6.66-2.25c1.8-1.5,2.97-3.6,3.51-6.3.66-3.36.45-6.21-.63-8.55-1.08-2.34-3.3-3.51-6.66-3.51-1.98,0-3.72.32-5.22.95-1.5.63-2.94,1.61-4.32,2.92h-11.61l10.44-35.91h36l-2.34,11.34h-25.29l-3.6,13.05c1.56-.9,3.09-1.59,4.59-2.07,1.5-.48,3.39-.72,5.67-.72,4.26,0,7.75,1.11,10.49,3.33,2.73,2.22,4.6,5.15,5.62,8.77,1.02,3.63,1.05,7.64.09,12.02-1.14,5.34-3.75,9.69-7.83,13.05-4.08,3.36-9.36,5.04-15.84,5.04s-11.54-1.55-15.35-4.63c-3.81-3.09-5.75-7.88-5.8-14.36Z"/>
    </g>
    <g>
      <path class="cls-1" d="M54.65,17.83l-3.53,1.72-1.08-2.22,9.63-4.69,1.08,2.22-3.54,1.72,4.54,9.34-2.56,1.24-4.54-9.34Z"/>
      <path class="cls-1" d="M61.3,15.78l2.41-1.01.48,1.14c.27-1.13.9-1.9,1.91-2.33.15-.06.3-.12.45-.17.14-.05.28-.08.42-.1l.61,2.23c-.15.04-.3.08-.44.12-.14.04-.29.09-.44.16-.27.11-.5.25-.71.43-.21.17-.38.38-.52.64-.14.25-.22.53-.24.82-.02.29.04.61.18.94l2.01,4.76-2.45,1.04-3.65-8.66Z"/>
      <path class="cls-1" d="M69.43,19.7c-.28-.78-.29-1.46-.03-2.03.26-.57.7-1.07,1.31-1.49s1.31-.79,2.09-1.09l1.25-.51-.12-.32c-.2-.54-.45-.89-.76-1.05-.31-.16-.71-.15-1.21.03-.49.17-.82.39-1,.65-.18.26-.25.58-.21.94l-2.33.6c-.16-.94.01-1.74.52-2.39.5-.66,1.32-1.19,2.45-1.59,1.33-.48,2.4-.52,3.2-.14.8.39,1.41,1.16,1.83,2.33l2,5.57-2.32.83-.37-1.03c-.21.51-.5.96-.87,1.34-.37.39-.86.69-1.5.92-.89.32-1.7.35-2.42.08s-1.23-.82-1.54-1.67ZM71.77,18.69c.12.33.31.55.57.67s.62.09,1.06-.06c.63-.23,1.08-.57,1.34-1.04.26-.46.29-.99.08-1.58l-.22-.61-1.15.47c-.8.33-1.32.66-1.55,1-.24.34-.28.72-.12,1.15Z"/>
      <path class="cls-1" d="M83.82,14.89c-.08-.27-.22-.46-.42-.59-.21-.13-.56-.16-1.05-.11l-1.07.12c-1.19.13-2.11.07-2.77-.19s-1.11-.8-1.35-1.63c-.25-.88-.1-1.66.47-2.35.57-.69,1.44-1.2,2.62-1.54,1.28-.37,2.29-.41,3.04-.11.75.3,1.32.82,1.71,1.57l-2.31.95c-.21-.34-.46-.57-.74-.69-.29-.12-.68-.11-1.19.04-.54.16-.9.36-1.06.61-.17.25-.21.5-.14.75.08.26.22.45.44.56s.59.13,1.11.08l1.18-.13c1.25-.12,2.18-.04,2.78.25.6.29,1.02.85,1.27,1.69.25.88.12,1.66-.39,2.36s-1.42,1.24-2.73,1.61c-1.26.36-2.33.41-3.24.15-.9-.26-1.54-.91-1.93-1.95l2.46-.71c.21.42.49.67.83.77.35.1.79.07,1.32-.08.54-.16.9-.36,1.06-.6.17-.24.21-.51.12-.81Z"/>
      <path class="cls-1" d="M84.63,4.12l2.59-.63,3.03,12.49-2.59.63-3.03-12.49Z"/>
      <path class="cls-1" d="M90.31,13.24c-.16-.81-.07-1.48.28-2.01s.85-.95,1.52-1.28c.67-.33,1.42-.58,2.24-.77l1.31-.31-.06-.34c-.11-.57-.31-.95-.59-1.15-.28-.2-.69-.25-1.2-.15-.51.1-.87.26-1.09.5-.22.23-.33.53-.35.9l-2.39.25c-.01-.95.28-1.71.88-2.29.6-.58,1.49-.98,2.66-1.21,1.39-.27,2.45-.15,3.19.35.73.51,1.22,1.36,1.46,2.58l1.13,5.81-2.42.47-.21-1.08c-.29.47-.64.87-1.06,1.2-.42.33-.96.55-1.62.68-.93.18-1.73.09-2.4-.28-.67-.37-1.09-1-1.26-1.88ZM92.77,12.6c.07.34.22.59.47.74.24.15.6.19,1.05.1.66-.13,1.15-.4,1.48-.82.33-.42.43-.93.31-1.55l-.12-.64-1.21.29c-.84.2-1.4.45-1.69.75s-.38.67-.29,1.12Z"/>
      <path class="cls-1" d="M99.37,9.43c-.2-1.56,0-2.83.6-3.82.6-.99,1.51-1.56,2.75-1.71.49-.06.97-.02,1.44.11.47.13.9.39,1.29.78l-.55-4.36,2.66-.33,1.6,12.75-2.57.32-.14-1.12c-.29.5-.65.9-1.08,1.2-.43.3-.96.49-1.58.57-.83.1-1.56,0-2.17-.34-.62-.33-1.11-.85-1.49-1.55-.38-.7-.63-1.53-.75-2.49ZM102.04,8.99c.13,1.02.41,1.72.83,2.1.43.38.9.53,1.43.46.64-.08,1.1-.37,1.39-.87s.37-1.14.27-1.93l-.06-.45c-.11-.88-.36-1.52-.75-1.9-.39-.39-.89-.54-1.51-.46-.58.07-1.03.35-1.34.84-.31.49-.4,1.22-.28,2.21Z"/>
      <path class="cls-1" d="M109.63,8.12c-.09-1.57.27-2.82,1.07-3.75s1.95-1.44,3.43-1.52c1.5-.08,2.68.29,3.55,1.1.87.82,1.35,2.01,1.43,3.58.09,1.56-.27,2.81-1.06,3.75-.8.94-1.94,1.45-3.44,1.53-1.5.08-2.68-.29-3.55-1.11-.87-.82-1.35-2.01-1.43-3.57ZM112.35,7.93c.05.88.25,1.55.6,2.04.35.49.88.71,1.57.67.71-.04,1.21-.32,1.51-.85s.43-1.23.38-2.1c-.05-.88-.25-1.55-.61-2.03-.36-.48-.89-.7-1.6-.66-.7.04-1.19.32-1.49.83s-.42,1.22-.37,2.1Z"/>
      <path class="cls-1" d="M122.63,9.63c.03-.83.26-1.46.72-1.9.45-.44,1.04-.74,1.77-.91.73-.17,1.51-.25,2.35-.25h1.35s.01-.35.01-.35c.02-.58-.09-.99-.32-1.25-.23-.26-.61-.4-1.14-.41-.52-.02-.91.06-1.17.24-.26.18-.44.45-.54.8l-2.39-.29c.2-.93.65-1.61,1.36-2.04.71-.43,1.67-.62,2.86-.59,1.42.04,2.42.39,3.03,1.05s.89,1.6.85,2.84l-.18,5.92-2.46-.08.03-1.1c-.38.4-.82.71-1.3.93-.48.23-1.06.33-1.73.31-.95-.03-1.71-.3-2.28-.81-.57-.51-.84-1.21-.82-2.12ZM125.17,9.55c-.01.35.09.62.29.83.2.21.54.31,1.01.33.67.02,1.21-.14,1.63-.47.41-.33.63-.81.65-1.44l.02-.65h-1.24c-.86.02-1.47.14-1.81.37-.34.23-.52.57-.54,1.03Z"/>
      <path class="cls-1" d="M136.85,0l4.84.61c2.01.25,3.49.97,4.44,2.16s1.29,2.83,1.03,4.92c-.27,2.12-1.04,3.65-2.31,4.61-1.28.95-2.94,1.3-4.99,1.04l-4.62-.58,1.61-12.75ZM144.28,7.36c.16-1.27.02-2.28-.42-3.03-.44-.75-1.24-1.19-2.4-1.34l-2.14-.27-1.01,8,1.96.25c1.2.15,2.13-.09,2.79-.72.65-.63,1.06-1.59,1.23-2.89Z"/>
      <path class="cls-1" d="M147.77,9.77c.22-1.06.59-1.92,1.12-2.58.53-.66,1.17-1.12,1.93-1.37.76-.25,1.6-.28,2.52-.09,1.42.29,2.41.93,2.96,1.91.55.98.68,2.17.4,3.57l-.18.86-6.31-1.29c-.22,1.63.27,2.57,1.5,2.83.55.11.99.09,1.3-.06.31-.16.56-.41.73-.77l2.45.5c-.38.95-.97,1.62-1.77,2.02-.8.39-1.82.46-3.06.21-1.47-.3-2.51-.95-3.13-1.95-.62-1-.77-2.26-.46-3.79ZM154.25,8.41c-.18-.41-.61-.69-1.29-.83-.67-.14-1.19-.05-1.56.26-.37.31-.66.79-.87,1.45l3.83.79c.11-.7.07-1.26-.11-1.67Z"/>
      <path class="cls-1" d="M162.29,15.16c.07-.27.05-.51-.05-.72-.11-.22-.39-.43-.84-.64l-.98-.45c-1.08-.51-1.84-1.04-2.27-1.61s-.53-1.26-.31-2.1c.24-.88.78-1.47,1.63-1.76.84-.29,1.86-.28,3.04.04,1.29.35,2.17.85,2.65,1.49.48.64.7,1.38.64,2.23l-2.47-.39c0-.4-.09-.73-.27-.98-.18-.25-.52-.45-1.03-.59-.54-.15-.95-.16-1.22-.03-.27.12-.44.32-.51.57-.07.27-.04.5.09.71.13.2.43.42.91.65l1.08.5c1.13.54,1.88,1.1,2.24,1.66.36.56.43,1.26.2,2.11-.24.88-.76,1.48-1.57,1.81s-1.86.31-3.17-.04c-1.26-.34-2.21-.86-2.84-1.56-.63-.69-.84-1.58-.63-2.67l2.47.67c-.04.46.06.83.31,1.09.25.27.63.47,1.17.62.54.15.95.16,1.22.04.27-.12.44-.33.53-.63Z"/>
      <path class="cls-1" d="M170.59,17.8c.09-.26.08-.5-.01-.73s-.36-.45-.8-.69l-.95-.51c-1.05-.57-1.77-1.15-2.17-1.74-.4-.59-.45-1.29-.18-2.11.29-.86.87-1.42,1.73-1.66.86-.24,1.87-.17,3.03.23,1.26.43,2.11.98,2.56,1.65.44.67.61,1.42.51,2.26l-2.44-.54c.02-.4-.05-.73-.21-1s-.5-.48-1-.65c-.54-.18-.94-.22-1.22-.11-.28.11-.46.29-.54.54-.09.26-.07.5.04.71.12.21.41.44.87.7l1.04.56c1.1.61,1.81,1.21,2.14,1.79.33.58.35,1.29.07,2.12-.29.86-.85,1.43-1.67,1.71-.82.28-1.88.2-3.16-.23-1.24-.42-2.15-1-2.74-1.73-.59-.73-.75-1.63-.47-2.71l2.42.82c-.07.46.01.83.24,1.11.23.28.6.51,1.13.69.53.18.94.22,1.21.12.28-.1.46-.3.56-.6Z"/>
      <path class="cls-1" d="M173.34,18.79c.31-.77.76-1.27,1.34-1.52.58-.25,1.23-.33,1.97-.23.74.1,1.5.29,2.29.59l1.27.46.13-.32c.22-.53.27-.96.14-1.29-.13-.32-.43-.59-.92-.79-.48-.2-.87-.26-1.18-.18-.31.07-.57.26-.79.56l-2.13-1.11c.51-.8,1.17-1.28,1.99-1.43.82-.15,1.78,0,2.89.46,1.31.54,2.13,1.22,2.47,2.05.33.83.27,1.81-.2,2.95l-2.25,5.48-2.28-.94.42-1.02c-.5.24-1.01.38-1.54.42-.53.04-1.11-.06-1.73-.32-.88-.36-1.49-.88-1.85-1.56s-.36-1.43-.02-2.27ZM175.75,19.6c-.13.32-.14.61-.02.88.12.26.39.48.83.66.62.26,1.18.3,1.69.13.5-.17.88-.54,1.11-1.12l.25-.6-1.17-.42c-.81-.29-1.42-.4-1.82-.3-.4.09-.69.35-.86.77Z"/>
      <path class="cls-1" d="M182.51,22.02l2.76-5.64,2.39,1.17-2.56,5.22c-.26.53-.35.95-.28,1.27.07.32.31.57.71.77.5.24,1,.28,1.51.1.24-.08.45-.19.62-.33.18-.14.33-.35.46-.62l2.44-4.98,2.39,1.17-4.13,8.44-2.34-1.15.53-1.08c-1.14.55-2.24.57-3.29.05-.91-.44-1.45-1.04-1.65-1.79-.19-.75-.05-1.62.43-2.6Z"/>
    </g>
  </g>
</svg>