<?xml version="1.0" encoding="UTF-8"?>
<svg id="Capa_2" data-name="Capa 2" xmlns="http://www.w3.org/2000/svg" viewBox="0 0 245.14 145.22">
  <defs>
    <style>
      .cls-1 {
        fill: #ebaf00;
      }

      .cls-2 {
        fill: #f7f7f7;
      }
    </style>
  </defs>
  <g id="Capa_1-2" data-name="Capa 1">
    <path class="cls-1" d="M122.57,22.65C54.88,22.65,0,77.53,0,145.22h245.14c0-67.69-54.88-122.57-122.57-122.57Z"/>
    <g>
      <path class="cls-2" d="M47.75,91.14l-12.87,6.93-5.4-9.99,23.13-12.33h11.97l-13.14,62.19h-13.5l9.81-46.8Z"/>
      <path class="cls-2" d="M118.22,96.72c.12,4.44-.36,9.15-1.44,14.13-1.08,5.34-2.8,10.19-5.17,14.54-2.37,4.35-5.42,7.8-9.13,10.35-3.72,2.55-8.19,3.83-13.41,3.83-6.18,0-10.97-1.53-14.35-4.59-3.39-3.06-5.24-7.29-5.54-12.69h12.78c.36,2.34,1.21,3.96,2.56,4.86,1.35.9,3.11,1.35,5.26,1.35,2.82,0,5.31-1.11,7.47-3.33,2.16-2.22,3.84-5.79,5.04-10.71.3-1.2.54-2.49.72-3.87-1.74,1.8-3.66,3.11-5.76,3.92-2.1.81-4.44,1.21-7.02,1.21-4.08,0-7.53-1.08-10.35-3.24-2.82-2.16-4.79-5.05-5.9-8.69-1.11-3.63-1.21-7.63-.31-12.01,1.2-5.46,3.9-9.78,8.1-12.96,4.2-3.18,9.39-4.77,15.57-4.77,4.74,0,8.62.98,11.66,2.93,3.03,1.95,5.29,4.62,6.79,8.01,1.5,3.39,2.31,7.31,2.43,11.75ZM105.08,97.08c.42-2.1.39-4.09-.09-5.98-.48-1.89-1.39-3.43-2.74-4.64-1.35-1.2-3.14-1.8-5.36-1.8-2.7,0-4.95.72-6.75,2.16-1.8,1.44-3,3.54-3.6,6.3-.72,3.48-.44,6.45.85,8.91,1.29,2.46,3.56,3.69,6.79,3.69,2.46,0,4.74-.75,6.84-2.25,2.1-1.5,3.45-3.63,4.05-6.39Z"/>
      <path class="cls-2" d="M145.31,91.14l-12.87,6.93-5.4-9.99,23.13-12.33h11.97l-13.14,62.19h-13.5l9.81-46.8Z"/>
      <path class="cls-2" d="M215.78,96.72c.12,4.44-.36,9.15-1.44,14.13-1.08,5.34-2.8,10.19-5.17,14.54-2.37,4.35-5.42,7.8-9.13,10.35-3.72,2.55-8.19,3.83-13.41,3.83-6.18,0-10.97-1.53-14.35-4.59-3.39-3.06-5.24-7.29-5.54-12.69h12.78c.36,2.34,1.21,3.96,2.56,4.86,1.35.9,3.11,1.35,5.26,1.35,2.82,0,5.31-1.11,7.47-3.33,2.16-2.22,3.84-5.79,5.04-10.71.3-1.2.54-2.49.72-3.87-1.74,1.8-3.66,3.11-5.76,3.92-2.1.81-4.44,1.21-7.02,1.21-4.08,0-7.53-1.08-10.35-3.24-2.82-2.16-4.79-5.05-5.9-8.69-1.11-3.63-1.21-7.63-.31-12.01,1.2-5.46,3.9-9.78,8.1-12.96,4.2-3.18,9.39-4.77,15.57-4.77,4.74,0,8.62.98,11.66,2.93,3.03,1.95,5.29,4.62,6.79,8.01,1.5,3.39,2.31,7.31,2.43,11.75ZM202.64,97.08c.42-2.1.39-4.09-.09-5.98-.48-1.89-1.39-3.43-2.74-4.64-1.35-1.2-3.14-1.8-5.36-1.8-2.7,0-4.95.72-6.75,2.16-1.8,1.44-3,3.54-3.6,6.3-.72,3.48-.44,6.45.85,8.91,1.29,2.46,3.56,3.69,6.79,3.69,2.46,0,4.74-.75,6.84-2.25,2.1-1.5,3.45-3.63,4.05-6.39Z"/>
    </g>
    <g>
      <path class="cls-1" d="M80.5,5.77l8.25-2.09.57,2.25-5.55,1.41.78,3.09,5.22-1.32.57,2.25-5.22,1.32,1.24,4.87-2.7.69-3.16-12.46Z"/>
      <path class="cls-1" d="M91.92,12.95l-1.13-6.18,2.62-.48,1.05,5.72c.11.58.28.97.53,1.18.25.21.59.28,1.02.2.54-.1.97-.37,1.28-.82.14-.21.25-.42.3-.64.06-.22.06-.47,0-.77l-1-5.45,2.62-.48,1.7,9.24-2.57.47-.22-1.19c-.59,1.12-1.46,1.79-2.62,2-.99.18-1.79.03-2.39-.46-.6-.49-1-1.27-1.2-2.34Z"/>
      <path class="cls-1" d="M100.88,4.98l2.59-.3.13,1.18c.4-.61.83-1.05,1.3-1.32s.96-.43,1.48-.49c1.03-.12,1.83.08,2.42.6.59.52.95,1.32,1.07,2.4l.72,6.26-2.67.31-.66-5.76c-.07-.6-.23-1.01-.48-1.24-.25-.23-.6-.32-1.05-.27-.26.03-.52.11-.76.23-.25.12-.45.3-.62.52-.16.2-.27.41-.35.62s-.09.48-.05.8l.63,5.47-2.65.3-1.07-9.33Z"/>
      <path class="cls-1" d="M111.01,8.66c-.07-1.57.23-2.82.9-3.76.67-.94,1.63-1.43,2.88-1.49.49-.02.97.05,1.42.22.46.17.86.46,1.22.88l-.2-4.39,2.68-.12.58,12.84-2.59.12-.05-1.13c-.33.47-.72.84-1.18,1.11-.46.27-1,.42-1.62.44-.84.04-1.55-.13-2.14-.52-.59-.38-1.04-.93-1.36-1.66-.32-.72-.5-1.57-.55-2.54ZM113.7,8.43c.05,1.03.27,1.75.67,2.16.4.41.86.6,1.39.58.65-.03,1.13-.28,1.45-.76.32-.48.46-1.11.43-1.9l-.02-.45c-.04-.89-.24-1.54-.59-1.96-.36-.42-.84-.61-1.47-.58-.59.03-1.05.27-1.4.73s-.5,1.19-.45,2.18Z"/>
      <path class="cls-1" d="M121.06,10.24c.02-.83.25-1.46.7-1.9s1.03-.75,1.76-.93c.72-.18,1.51-.27,2.35-.28l1.35-.03v-.34c.02-.58-.09-.99-.33-1.25-.24-.26-.62-.39-1.14-.4-.52-.01-.9.07-1.17.25-.26.18-.44.45-.53.81l-2.39-.27c.19-.93.63-1.62,1.34-2.05.7-.44,1.66-.64,2.86-.62,1.42.03,2.43.37,3.04,1.02.61.65.9,1.59.88,2.83l-.12,5.92-2.46-.05.02-1.1c-.38.4-.81.72-1.29.95-.48.23-1.05.34-1.73.32-.95-.02-1.71-.28-2.29-.79-.58-.5-.86-1.21-.84-2.11ZM123.6,10.13c0,.35.09.62.3.83.21.2.54.31,1.01.32.67.01,1.21-.15,1.62-.49s.62-.82.63-1.45v-.65s-1.23.03-1.23.03c-.87.02-1.47.14-1.81.38-.34.23-.52.58-.53,1.03Z"/>
      <path class="cls-1" d="M130.71,8.41c.13-1.55.65-2.75,1.55-3.57.9-.83,2.08-1.18,3.52-1.06,1.21.1,2.13.48,2.77,1.13.64.65.99,1.51,1.05,2.59l-2.55.09c-.04-.49-.17-.87-.39-1.16-.22-.29-.57-.46-1.06-.5-.69-.06-1.21.15-1.55.64-.34.48-.55,1.15-.62,2-.07.85.02,1.55.28,2.09.25.54.73.85,1.42.91.53.04.93-.06,1.21-.32.28-.26.48-.64.59-1.13l2.55.21c-.24,1.18-.75,2.07-1.53,2.66-.77.59-1.8.83-3.08.73-1.47-.12-2.56-.66-3.28-1.6-.71-.95-1.01-2.18-.88-3.7Z"/>
      <path class="cls-1" d="M141.04,4.61l2.64.34-1.22,9.32-2.64-.34,1.22-9.32ZM141.47,1.14l2.68.35-.28,2.12-2.68-.35.28-2.12Z"/>
      <path class="cls-1" d="M144.09,9.72c.28-1.55.92-2.68,1.91-3.4s2.23-.95,3.69-.69c1.48.27,2.54.9,3.2,1.89.66,1,.84,2.27.57,3.81-.28,1.54-.91,2.67-1.9,3.4-.99.73-2.22.96-3.7.7-1.48-.27-2.54-.9-3.2-1.9s-.84-2.27-.57-3.81ZM146.77,10.17c-.16.86-.12,1.57.11,2.12s.69.89,1.37,1.02c.7.13,1.25-.03,1.67-.48.42-.44.7-1.1.86-1.96s.12-1.57-.12-2.12-.7-.89-1.4-1.01c-.69-.12-1.23.03-1.64.46s-.69,1.09-.85,1.96ZM150.93,2.03l2.92.53-3.2,2.35-2.37-.43,2.65-2.45Z"/>
      <path class="cls-1" d="M155.65,7.06l2.53.64-.29,1.15c.59-.43,1.15-.69,1.68-.77s1.05-.06,1.56.07c1,.25,1.69.73,2.05,1.42.37.69.42,1.57.15,2.63l-1.54,6.11-2.6-.66,1.42-5.62c.15-.58.14-1.02,0-1.33-.15-.3-.45-.51-.89-.62-.26-.06-.52-.08-.79-.05-.27.03-.53.12-.76.27-.22.13-.4.28-.54.46-.14.17-.25.42-.33.73l-1.35,5.34-2.58-.65,2.3-9.11Z"/>
    </g>
  </g>
</svg>