<?xml version="1.0" encoding="UTF-8"?>
<svg id="Capa_1" data-name="Capa 1" xmlns="http://www.w3.org/2000/svg" viewBox="0 0 120 120">
  <defs>
    <style>
      .cls-1 {
        fill: #2852d2;
      }

      .cls-2 {
        fill: #e83f15;
      }
    </style>
  </defs>
  <circle class="cls-1" cx="86.24" cy="48.36" r="5.52"/>
  <circle class="cls-1" cx="86.24" cy="31.14" r="5.52"/>
  <path class="cls-2" d="M80.65,60.07v22.02c0,1.34-.19,2.43-.59,3.28s-.97,1.64-1.71,2.39c-.8.85-1.73,1.47-2.8,1.86-1.07.4-2.15.59-3.25.59-1.89,0-3.29-.53-4.21-1.6s-1.38-2.85-1.38-5.33V7.5h-11.1v25.36c-1.39-1.79-3.02-3.08-4.88-3.88-1.86-.8-3.82-1.2-5.86-1.2-5.17,0-9.23,1.88-12.19,5.63-2.96,3.75-4.44,8.88-4.44,15.39,0,4.03.59,7.57,1.79,10.62,1.19,3.05,2.97,5.43,5.33,7.12,2.36,1.69,5.28,2.54,8.76,2.54,2.59,0,4.85-.51,6.79-1.53,1.77-.93,3.34-2.23,4.69-3.9v21.7c0,4.52,1.09,7.99,3.28,10.4,2.19,2.41,5.42,3.62,9.69,3.62,2.19,0,4.26-.42,6.23-1.27,1.96-.85,3.91-2.39,5.85-4.62v19.01h11.03v-52.43h-11.03ZM53.55,57.19c-1.42,1.91-3.47,2.87-6.15,2.87-2.19,0-4.06-.88-5.63-2.65-1.57-1.76-2.35-4.78-2.35-9.05s.76-7.11,2.27-8.95c1.52-1.84,3.49-2.76,5.93-2.76,2.58,0,4.57.9,5.96,2.68,1.39,1.79,2.09,4.52,2.09,8.2v1.86c0,3.28-.71,5.88-2.12,7.79Z"/>
</svg>